<svg width="15" height="11" viewBox="0 0 15 11" fill="none" xmlns="http://www.w3.org/2000/svg">
<g clip-path="url(#clip0_527_47371)">
<path d="M1.57302 0H6.01747C6.31215 0 6.59477 0.144866 6.80314 0.402728C7.01152 0.660591 7.12858 1.01033 7.12858 1.375V9.625C7.12858 9.98967 7.01152 10.3394 6.80314 10.5973C6.59477 10.8551 6.31215 11 6.01747 11H1.57302C1.27834 11 0.995725 10.8551 0.787351 10.5973C0.578977 10.3394 0.461914 9.98967 0.461914 9.625V1.375C0.461914 1.01033 0.578977 0.660591 0.787351 0.402728C0.995725 0.144866 1.27834 0 1.57302 0ZM1.57302 0.6875C1.42568 0.6875 1.28437 0.759933 1.18019 0.888864C1.076 1.0178 1.01747 1.19266 1.01747 1.375V9.625C1.01747 9.80734 1.076 9.98221 1.18019 10.1111C1.28437 10.2401 1.42568 10.3125 1.57302 10.3125H6.01747C6.16481 10.3125 6.30612 10.2401 6.41031 10.1111C6.51449 9.98221 6.57302 9.80734 6.57302 9.625V1.375C6.57302 1.19266 6.51449 1.0178 6.41031 0.888864C6.30612 0.759933 6.16481 0.6875 6.01747 0.6875H1.57302Z" fill="white"/>
<path opacity="0.4" d="M8.90603 0H13.3505C13.6452 0 13.9278 0.144866 14.1362 0.402728C14.3445 0.660591 14.4616 1.01033 14.4616 1.375V9.625C14.4616 9.98967 14.3445 10.3394 14.1362 10.5973C13.9278 10.8551 13.6452 11 13.3505 11H8.90603C8.61135 11 8.32873 10.8551 8.12036 10.5973C7.91198 10.3394 7.79492 9.98967 7.79492 9.625V1.375C7.79492 1.01033 7.91198 0.660591 8.12036 0.402728C8.32873 0.144866 8.61135 0 8.90603 0ZM8.90603 0.6875C8.75869 0.6875 8.61738 0.759933 8.5132 0.888864C8.40901 1.0178 8.35048 1.19266 8.35048 1.375V9.625C8.35048 9.80734 8.40901 9.98221 8.5132 10.1111C8.61738 10.2401 8.75869 10.3125 8.90603 10.3125H13.3505C13.4978 10.3125 13.6391 10.2401 13.7433 10.1111C13.8475 9.98221 13.906 9.80734 13.906 9.625V1.375C13.906 1.19266 13.8475 1.0178 13.7433 0.888864C13.6391 0.759933 13.4978 0.6875 13.3505 0.6875H8.90603Z" fill="white"/>
</g>
<defs>
<clipPath id="clip0_527_47371">
<rect width="14" height="11" fill="white" transform="translate(0.461914)"/>
</clipPath>
</defs>
</svg>
