<svg width="134" height="74" viewBox="0 0 134 74" fill="none" xmlns="http://www.w3.org/2000/svg">
<g clip-path="url(#clip0_175_628)">
<path d="M130.966 69.2725C131.032 68.9178 131.314 68.827 131.174 68.4366C131.105 68.2442 130.529 68.0384 130.376 67.877C129.868 67.3388 129.548 66.5386 129.071 65.9453C128.87 66.0641 128.763 66.1279 128.628 66.2081C127.7 65.2118 126.669 64.346 125.853 63.2491C125.025 62.1378 124.327 60.9473 123.504 59.8302C122.447 59.0967 121.773 57.9245 120.911 56.9746C120.002 55.9734 119.178 54.9007 118.313 53.8629C117.456 52.8356 116.654 51.8277 115.882 50.7406C115.313 49.9385 114.519 49.4553 114.024 48.603H115.554C115.528 48.6126 115.505 48.6223 115.481 48.631C116.201 48.631 116.92 48.631 117.641 48.6329L118.837 48.5653C118.868 48.5566 118.9 48.5489 118.935 48.545C119.5 48.4822 120.06 48.4696 120.615 48.5179H121.431C121.982 48.5102 122.533 48.5034 123.085 48.5025C123.13 48.5025 123.173 48.5083 123.212 48.5179H123.276C123.276 48.5247 123.274 48.5315 123.274 48.5382C123.281 48.5411 123.288 48.545 123.293 48.5479C124.689 48.5382 126.084 48.5237 127.478 48.3662C127.95 48.1401 128.456 47.9835 128.93 47.7632C128.801 47.1428 127.562 45.8595 127.243 45.3763C125.976 43.4561 124.796 41.4741 123.574 39.525C121.119 35.6103 118.714 31.6453 115.952 27.9354C114.497 25.9805 113.074 24.0023 111.728 21.9711C110.59 20.2529 109.54 18.1549 107.782 16.974C106.808 17.5654 105.148 17.5616 104.036 17.3045C103.564 17.1953 103.129 17.0136 102.631 16.9759C101.995 16.9286 101.693 17.2156 101.103 17.3151C100.522 17.4137 99.9106 17.1615 99.3159 17.146C98.5631 17.1257 97.8297 17.3161 97.0758 17.3441C95.5566 17.4002 94.0315 17.3789 92.5122 17.3277C92.5035 17.2601 92.4948 17.1914 92.486 17.1238C94.764 16.4328 97.0419 15.7419 99.3227 15.05C99.3567 14.8519 99.3935 14.6441 99.4372 14.389C99.1694 14.3677 98.8066 14.6354 98.565 14.4315C98.2187 14.1387 98.6814 13.6797 98.8105 13.4246C98.5466 13.1424 97.9412 13.8826 97.6783 13.2323C97.7724 13.0863 97.8626 12.9472 98.0314 12.6863C97.5143 12.8022 97.0031 12.5974 96.4889 12.693C95.9049 12.8013 95.3412 13.2313 94.7863 13.4458C93.6541 13.8826 92.4521 14.1416 91.285 14.4653C92.0271 13.7638 92.3347 13.5318 91.902 12.5172C91.7409 12.1393 91.5624 12.0127 91.2927 11.718C90.8591 11.2445 91.0104 11.3991 90.8911 10.797C90.7766 10.2211 90.568 9.31657 89.7269 9.53883C89.0099 9.72824 88.8072 10.8753 88.9585 11.4464C88.2949 11.862 87.0638 12.3094 87.1841 13.24C87.2239 13.5492 87.5004 13.7754 87.545 14.0923C87.3743 14.3136 87.3442 14.5494 87.4548 14.8007C87.6052 15.0162 87.7226 15.2481 87.805 15.4974C85.1361 16.7933 82.3052 16.4097 79.4316 16.5623C78.0093 16.6377 76.5949 16.7981 75.1707 16.8426C74.5459 16.8619 72.3562 16.5565 72.1544 17.4205C72.0177 17.3055 71.9148 17.2175 71.811 17.1306C71.8944 16.9643 71.9798 16.4995 72.1506 16.372C72.3349 16.2338 72.5338 16.3729 72.7123 16.2676C73.177 15.9932 73.5369 15.4182 73.8697 14.9872C74.2316 14.5185 74.5954 14.0382 74.8107 13.4816C75.0387 12.895 74.8185 12.3046 74.9737 11.7721C75.2638 10.7777 77.4593 10.5516 78.3799 10.3438C79.418 10.109 81.2904 10.2655 81.7978 9.09141C80.816 8.70777 79.3792 9.28468 78.3082 9.38228C77.4078 9.46443 76.0234 9.9766 75.1765 9.70022C75.5587 9.15036 76.8413 9.28082 77.4835 9.2151C78.2461 9.13683 78.7719 9.04696 79.3938 8.5889C79.9681 8.16564 81.3826 7.34423 81.5436 8.51449C82.1092 8.61499 82.7379 8.0603 82.6283 7.4457C82.4944 6.6987 81.3205 7.31331 80.7626 7.43797C78.9708 7.83901 77.1226 8.44781 75.2832 8.44781C75.4132 7.3423 75.3298 6.14788 75.5655 5.06845C75.8352 3.83634 75.2677 3.99773 74.0657 4.05957C73.1964 4.10402 71.9643 4.45578 71.1591 4.02865C70.6167 3.74067 71.0368 3.62181 70.2617 3.57059C69.73 3.53581 69.1479 3.73971 68.69 3.98806C67.8382 3.84697 67.0941 4.09919 66.2443 4.12239C65.6913 4.13785 64.5843 3.82281 64.1943 4.3891C63.8761 4.85005 64.3554 6.23098 64.3786 6.80983C64.4145 7.70275 64.4689 8.58504 64.5833 9.47119C64.6677 10.1244 64.9578 10.9652 64.9161 11.6107C64.9035 11.8117 64.6445 11.7644 64.6115 11.9518C64.5523 12.2891 64.6163 12.6882 64.6251 13.0342C64.6532 14.1803 65.342 16.4097 66.8875 16.3797C67.1077 17.5007 66.1628 17.2417 65.2809 17.2282C64.2273 17.2117 63.1786 17.0745 62.1259 17.0359C59.5929 16.9441 57.0802 17.0832 54.5471 16.9866C52.1954 16.8967 50.1115 17.0339 47.8627 16.1855C45.6042 15.3322 43.303 14.6345 41.0764 13.6951C38.8548 12.7578 36.6991 11.9219 34.5473 10.8289C32.6283 9.85483 30.6046 8.99284 28.64 8.10959C26.4639 7.1326 24.2103 6.34405 22.0352 5.37382C20.9564 4.89257 19.8979 4.35625 18.8414 3.82861C17.9353 3.37539 17.5957 2.76658 16.6838 2.41096C17.1582 2.40613 17.4948 2.29403 17.6375 1.77606C17.4483 1.7606 17.2979 1.74804 17.1068 1.73161C17.3095 1.17209 17.5395 1.09671 17.1951 0.549753C16.8943 0.0714044 16.5509 -0.0513234 16.0241 0.0182546C14.6707 0.195098 14.6853 1.29868 13.9295 2.1829C13.7617 2.13845 13.5114 2.0737 13.262 2.00799C13.2426 2.06984 13.2242 2.13168 13.2048 2.1945C13.4105 2.27857 13.6152 2.36361 13.8073 2.44285C13.6773 2.87482 13.525 3.27875 12.8604 3.18695C13.5085 3.80832 12.8827 4.36977 12.9894 4.97182C12.5771 4.90514 12.2162 4.84716 11.8563 4.79014C11.8408 4.84522 11.8252 4.90031 11.8097 4.95539C12.1425 5.10227 12.6751 5.21727 12.8973 5.52168C13.167 5.89082 12.9225 6.41556 13.1582 6.8079C13.7122 7.72788 14.4912 6.68904 15.3023 6.93449C15.6952 7.05336 16.2094 7.27852 16.6013 7.42734C16.9894 7.57422 17.1679 7.6641 17.3328 8.05547C17.7597 9.06242 16.7963 10.4462 17.001 11.4928C17.0447 11.5141 17.0874 11.5353 17.131 11.5566C17.4395 11.0908 17.6064 10.7304 17.7568 10.194C17.8586 9.82778 17.8567 8.98511 18.0469 8.70197C18.4795 8.05644 20.2384 9.0344 20.8273 9.24409C21.8285 9.60068 22.8685 9.96887 23.828 10.4231C24.7574 10.8627 25.4996 11.4087 26.4882 11.7818C27.5709 12.1905 28.5207 12.8641 29.6286 13.2158C30.6114 13.528 31.6009 13.8962 32.5614 14.2827C33.4568 14.6431 34.2679 15.1486 35.1992 15.5216C36.442 16.0192 37.6702 16.5469 38.8984 17.0764C37.4131 17.3499 35.7231 17.0262 34.2262 16.9354C32.6002 16.8368 30.9839 16.7121 29.355 16.6744C27.6339 16.6348 25.8712 16.7653 24.1588 16.6619C22.6454 16.5701 21.1349 16.1062 19.602 15.9999C19.1819 15.9709 17.7248 16.1758 17.4628 15.797C17.1281 15.3119 17.751 14.1339 17.6598 13.5705C17.5938 13.1637 17.553 12.8051 17.1077 13.2139C16.7924 13.5028 16.8584 14.4489 16.8167 14.8606C16.6615 16.3865 16.7633 17.9259 16.6751 19.4566C16.6265 20.2867 16.579 21.1158 16.5315 21.9459C16.5043 22.4214 16.253 23.3066 16.6547 23.6902C16.7847 23.553 17.1805 23.2225 17.2368 23.0437C17.2736 22.9268 17.0651 22.7374 17.0709 22.606C17.0932 22.116 17.1301 21.627 17.1524 21.1371C17.2222 19.6025 17.2989 18.0689 17.3707 16.5353C20.579 16.5353 23.6398 17.2127 26.8404 17.1653C29.9711 17.119 33.0707 17.6727 36.1791 17.6717C37.6702 17.6717 39.465 17.49 40.8941 17.9829C42.2756 18.4593 43.6328 19.0565 45.0279 19.532C46.5064 20.0364 47.918 20.7283 49.3984 21.2308C50.0174 21.4405 50.6878 21.5333 51.2679 21.8445C51.8345 22.1479 52.1042 22.4194 52.76 22.4494C52.7697 22.3905 52.7785 22.3305 52.7882 22.2716C52.566 22.146 52.3438 22.0194 52.0023 21.8261C52.7435 21.7652 53.151 22.5335 53.8233 22.1769C52.598 21.4144 51.233 20.9612 49.934 20.3669C49.9088 20.4094 49.8845 20.451 49.8593 20.4935C50.0601 20.6297 50.2609 20.767 50.4608 20.9032C50.4336 20.9631 50.4064 21.024 50.3783 21.0839C47.6764 20.0847 45.0036 19.0729 42.3716 17.9027C42.3774 17.8292 42.3842 17.7568 42.39 17.6833C44.3973 17.4543 46.6529 18.7869 48.5651 19.474C49.6808 19.875 50.7673 20.3814 51.8636 20.8317C52.7542 21.198 54.0571 22.0561 55.0098 21.9798C54.8624 21.1439 53.0472 20.9515 52.4651 20.2355C52.4826 20.193 52.501 20.1504 52.5185 20.1079C54.2842 20.8211 56.0489 21.5333 57.8146 22.2465C57.8349 22.1991 57.8553 22.1508 57.8766 22.1034C55.785 20.8936 53.4692 20.1475 51.3203 19.0372C51.8947 19.0314 52.4719 19.3029 53.0055 19.4827C53.0559 18.9666 52.1362 18.8159 51.7967 18.6748C51.8161 18.6275 51.8365 18.5801 51.8559 18.5327C53.15 18.985 54.4966 19.273 55.7675 19.7958C56.7193 20.1872 57.8175 21.0578 58.905 20.8008C58.907 20.7496 58.9079 20.6984 58.9099 20.6471C60.142 21.3574 61.4536 22.2455 62.8312 22.6523V22.2097C63.5851 22.3808 64.0459 22.6823 64.7725 22.9249C66.0609 23.3559 65.8756 23.6332 65.7805 24.9185C65.3663 24.6247 65.0044 24.3676 64.5494 24.0439C64.8443 23.956 65.0413 23.898 65.3275 23.812C64.6241 23.467 64.237 23.0379 63.4618 23.1239C62.9894 23.1761 62.8157 23.3955 62.3015 23.2515C61.9959 23.1664 61.6816 22.9761 61.3847 22.8601C61.3634 22.9084 61.343 22.9567 61.3217 23.0041C61.5953 23.1945 61.8688 23.3848 62.2394 23.6429C61.8902 23.7047 61.6787 23.7424 61.4711 23.7791C61.538 25.0151 59.459 23.0524 58.7197 23.955C59.0224 24.6276 59.8412 24.0884 60.3593 24.6672C59.3358 24.8276 58.5693 24.846 57.5613 25.1958C56.3069 25.6316 55.0157 25.8172 53.7215 26.0906C52.5156 26.3448 51.3766 26.828 50.1668 27.058C49.0531 27.2696 48.0266 27.1189 46.9391 27.6117C46.0999 27.9924 45.2491 28.3577 44.2915 28.4118C43.7182 28.4447 43.4873 28.349 42.91 28.4592C42.3279 28.5703 41.74 28.8573 41.188 29.0651C40.1519 29.4555 38.8878 30.2837 37.8051 30.4412C36.8815 30.5765 36.118 29.844 35.4204 29.3415C36.8825 29.2246 36.0219 27.6649 35.0566 27.4561C34.4755 27.3305 33.939 27.4861 33.5422 27.9973C33.1988 28.4389 33.3375 28.9462 33.0668 29.4082C32.7797 29.8981 32.0326 30.0489 31.8328 30.5784C31.5854 31.2317 32.3091 31.3332 32.3033 31.8076C32.2985 32.2995 31.4389 32.0773 31.1023 32.2203C30.6298 32.4193 29.8983 33.0649 29.7955 33.5664C30.1845 33.4582 30.5095 33.3664 30.8054 33.2842V34.6932C30.7598 34.699 30.7132 34.7038 30.6676 34.7096C30.8995 35.1435 31.4263 34.9415 31.827 34.956C31.598 35.2788 31.3283 35.446 31.1294 35.8026C32.3576 36.1708 31.3419 37.1796 31.7581 38.0397C31.9618 38.461 32.3683 38.4813 32.6943 38.7857C33.0532 39.121 33.2793 39.7038 33.5344 40.1183C33.8808 40.2333 34.4037 40.3126 34.718 40.5029C34.7792 40.5397 35.207 40.9668 35.1944 40.961C35.628 41.1591 35.8095 41.0789 36.0491 40.5232C36.3527 39.8178 36.151 38.7654 36.2024 38.0155C36.2577 37.2028 36.3789 36.3689 36.4624 35.559C36.6409 33.8186 38.0738 33.6186 39.5678 33.5587C40.279 33.5297 41.1618 32.8919 41.8332 32.9895C41.8458 32.9914 41.8574 32.9943 41.87 32.9972C41.9302 32.9692 42 32.9528 42.0815 32.9528C42.1213 32.9528 42.1591 32.9566 42.1941 32.9644C42.2717 32.8803 42.3852 32.8242 42.5346 32.8242C42.5501 32.8242 42.5647 32.8252 42.5802 32.8262C44.3721 32.2145 46.292 32.0869 48.1314 31.6366C50.2988 31.1061 52.4253 30.4489 54.6111 29.9899C55.6618 29.7686 56.696 29.4903 57.7311 29.2062C58.7372 28.9298 59.9499 28.3761 60.9899 28.6042C61.7699 28.7752 62.2666 29.4004 62.9884 29.6411C63.8625 29.9329 65.0937 29.8653 66.0095 29.9764C65.9581 30.8374 65.2333 31.5767 65.8601 32.5527C64.368 32.4493 62.838 32.2454 61.3469 32.4329C60.887 32.4909 60.4078 32.6735 59.945 32.689C59.7956 32.6938 58.9603 32.4783 58.8458 32.5276C58.3743 32.7315 58.6858 33.2572 58.7682 33.6389C58.9952 34.6913 59.7481 36.3988 57.898 36.3225C56.5504 36.2664 54.8294 35.4431 54.8294 37.5121C55.6589 38.001 56.5078 38.5006 57.3382 38.9896C57.8388 38.8186 58.0086 39.0331 58.5286 39.0399C59.0127 39.0457 59.557 38.777 60.0139 38.634C61.0384 38.3141 61.637 37.9324 62.7488 37.8851C63.6287 37.8474 65.049 37.4782 65.8921 37.7276C66.6381 37.9489 66.9234 38.4939 67.7994 38.5374C69.9483 38.6446 71.8838 37.5237 73.9842 37.5488C74.9621 37.5604 76.5075 37.0656 77.4224 37.3516C77.8978 37.5005 78.1723 37.9179 78.4023 38.3857C78.4547 38.4166 78.4973 38.4572 78.5313 38.5045C78.637 38.5151 78.7234 38.5548 78.7874 38.6127C78.833 38.6263 78.8738 38.6456 78.9106 38.6698C80.7675 39.4573 83.059 39.2389 84.9634 38.5712C84.9673 38.491 84.9702 38.4098 84.9741 38.3296C84.3522 38.0928 83.8186 38.0455 83.1793 37.9092C82.5652 37.7788 82.2974 37.8184 82.6254 37.2589C82.8465 36.881 83.2598 37.1477 83.0503 36.6095C82.9057 36.2384 81.9734 36.0007 81.6455 35.847C81.2409 34.9077 80.1272 34.2516 79.4035 33.5577C78.5565 32.746 78.3751 32.8919 77.3079 33.0108C76.2155 33.1325 75.0281 33.0166 73.9308 33.0088C73.2624 33.004 72.0283 33.2823 72.4552 32.2667C71.7043 31.6008 72.333 30.6625 72.5891 29.8682C72.6201 29.873 72.7802 29.8971 72.8607 29.9097C73.7756 29.4062 74.3722 28.8515 75.4035 29.0506C76.3145 29.2265 77.2284 29.4207 78.1326 29.6246C80.1515 30.0808 82.1412 30.6567 84.1369 31.1988C86.1354 31.7419 88.2814 31.8656 90.2498 32.488C91.0182 32.7315 91.933 33.4707 92.7392 33.4408C93.0943 33.4273 93.2117 33.0832 93.6027 33.1586C93.8646 33.2089 94.1935 33.6186 94.4098 33.7887C94.437 33.7626 94.4651 33.7365 94.4923 33.7104C94.469 33.6167 94.4457 33.522 94.4186 33.4147C95.8622 33.7162 97.2864 33.9491 98.7076 34.3646C99.6264 34.6323 101.9 34.9299 102.347 35.7649C102.604 36.2461 102.391 37.5536 102.403 38.1218C102.414 38.6852 102.196 38.8679 102.141 39.3394C102.076 39.8903 102.49 40.4508 102.391 41.0084C102.285 41.6065 101.882 41.4316 101.661 41.9177C101.422 42.4424 102.178 42.8473 102.602 43.1459C103.166 43.545 103.14 43.3943 103.792 43.3721C104.327 43.3537 104.779 43.5605 105.272 43.7209C105.493 43.7934 106.673 44.2302 106.84 44.1751C107.75 43.8746 107.332 42.0453 107.397 41.3388C107.525 39.9473 107.504 38.403 107.884 37.0588C108.645 37.3545 109.807 37.5942 110.413 38.1721C110.423 38.1827 110.434 38.1933 110.445 38.204C110.581 38.2204 110.683 38.2861 110.75 38.377C110.755 38.377 110.759 38.376 110.764 38.376C110.757 38.3673 110.75 38.3586 110.742 38.3499C111.688 38.2136 111.715 38.1769 111.47 37.6976C111.755 36.768 112.482 35.2034 111.413 34.7289C110.217 34.1974 108.721 34.182 107.572 33.6196C108.149 32.888 108.189 32.4097 107.699 31.5129C107.495 31.1408 107.045 30.6045 106.61 30.4924C106.049 30.3475 105.172 30.8703 104.784 31.2897C104.386 31.7207 104.433 32.3237 104.351 32.9267L104.178 33.003C104.092 32.8542 104.006 32.7044 103.918 32.5556C103.897 32.5991 103.875 32.6416 103.853 32.6851C100.673 31.8859 97.5367 30.8471 94.3371 30.1281C91.0919 29.3995 87.87 28.6496 84.6637 27.7586C83.0668 27.315 81.4796 26.8309 79.875 26.4173C78.7505 26.1274 76.4047 26.1564 75.7916 24.9929C75.1668 23.8062 77.7028 23.2525 78.5002 22.9567C79.7469 22.4929 80.75 21.8648 82.0578 21.7208C82.638 20.9718 83.4413 20.766 84.3386 20.4761C85.009 20.2596 86.0131 19.7301 86.702 19.8412C86.8494 20.7544 86.6496 21.5033 86.6806 22.3982C86.7058 23.1181 87.1017 23.5636 87.5111 24.1328C87.4082 24.2053 87.3248 24.2652 87.1987 24.3541C87.5479 24.7252 90.2585 26.8869 90.4196 25.4905C90.5593 25.6191 90.6563 25.708 90.7921 25.8326C91.934 24.3309 91.3102 21.8164 91.3927 20.0567C91.4188 19.5117 91.1181 18.3772 91.6439 17.9645C91.7807 17.8573 91.9534 17.8089 92.1445 17.8022C92.1853 17.7915 92.228 17.7848 92.2755 17.7848C93.2389 17.78 94.2051 17.7036 95.1666 17.7606C96.0931 17.7123 97.0729 17.778 97.9432 17.865C99.2664 17.9964 100.41 17.9375 101.697 18.2999C101.82 17.4369 102.827 17.7684 103.489 17.7345C103.588 18.5115 107.119 18.0051 107.787 18.1955C109.089 18.5646 109.986 20.6384 110.698 21.6686C112.605 24.4285 114.66 27.057 116.604 29.7947C118.608 32.6145 120.692 35.5001 122.381 38.52C123.105 39.8139 124.005 40.9774 124.781 42.2385C125.223 42.9565 125.665 43.6755 126.115 44.3896C126.431 44.8931 127.36 45.8914 127.36 46.4818C126.981 46.3977 126.821 46.5243 126.464 46.5021C125.871 46.4654 125.287 46.1397 124.659 46.1764C123.615 46.2383 122.63 46.3543 121.553 46.3137C118.956 46.2161 116.37 46.4248 113.774 46.3871C109.106 46.3204 104.45 46.1146 99.7845 45.9851C97.4823 45.9213 95.1889 45.9445 92.8886 45.8237C90.733 45.7107 88.5297 45.5473 86.374 45.6643C82.0646 45.8981 77.7338 45.786 73.4283 46.0953C72.3106 46.1755 71.1853 46.1687 70.0647 46.1842C69.147 46.1967 67.7286 46.4857 66.8535 46.2045C66.3752 46.0508 66.1957 45.729 65.6437 45.816C65.181 45.8894 64.8269 46.1407 64.3379 46.1735C63.2765 46.2441 62.1677 46.0837 61.1044 46.0315C61.2897 45.8189 61.4313 45.6556 61.6147 45.4449C61.0529 45.2603 61.1179 45.5705 60.7774 45.7706C60.2545 46.0769 59.9848 46.0866 59.2678 46.0914C58.8061 46.0943 58.1337 46.218 57.6807 46.0914C57.2557 45.9735 57.2606 45.7686 56.7755 45.7928C56.3719 45.8131 55.8878 46.103 55.4348 46.1378C54.9177 46.1774 54.3569 46.2083 53.8389 46.1948C52.9075 46.1716 52.6194 45.788 51.819 46.3233C51.427 45.6913 51.4319 45.9252 50.9002 46.0846C50.5083 46.2025 50.1678 46.2451 49.6691 46.2431C48.2643 46.2364 47.0322 46.3794 45.6517 46.1098C45.3655 45.6556 45.2588 46.0711 44.8921 46.1629C44.2983 46.3117 43.5271 46.1639 42.9178 46.0585C43.0711 45.8508 43.1642 45.7242 43.2564 45.5976C42.6578 45.5328 42.5705 45.9233 42.0883 46.0991C41.6673 46.2528 40.9814 46.1146 40.5399 46.1088C39.3078 46.0924 37.8575 46.3243 36.6593 46.046C36.8398 45.8943 36.9756 45.7793 37.1298 45.6498C36.5507 45.298 35.6135 45.2545 35.2293 45.8517C35.3777 45.9175 35.4835 45.9638 35.5921 46.0122C34.3552 46.4093 33.1949 46.3765 32.5798 45.8624C33.0571 45.7841 33.4704 45.7165 33.8827 45.6498C33.8905 45.5744 33.8992 45.4981 33.907 45.4227C33.2482 45.2111 32.9533 45.2207 32.2742 45.3705C32.4517 45.1463 32.5934 44.9666 32.736 44.7868C32.6933 44.7472 32.6506 44.7085 32.6079 44.6689C32.3353 44.9173 31.8677 45.6005 31.4476 45.5367C31.0538 45.4768 30.7608 44.8409 30.5124 44.5742C30.4726 44.609 30.4319 44.6428 30.3921 44.6776C30.4503 44.8989 30.5124 45.1192 30.5774 45.3396C29.9846 45.1105 29.0523 44.2679 28.8884 43.6079C28.8204 43.3363 29.0591 43.0822 28.866 42.8116C28.6051 42.4453 28.1491 42.5632 27.7707 42.541C27.7678 42.5294 27.2168 41.5795 27.2313 41.5988C27.0179 41.3205 26.6133 41.0683 26.3553 40.8045C25.5035 39.9347 25.0543 39.1829 24.0288 38.5171C24.2791 38.5296 24.4547 38.5383 24.6303 38.547C24.6439 38.5084 24.6575 38.4688 24.6701 38.4301C24.2753 38.0851 23.8794 37.7401 23.4642 37.3768C23.3682 37.5285 23.2964 37.6416 23.212 37.7749C22.1807 37.0211 21.3202 35.9582 20.4189 35.0556C19.5768 34.2129 18.7366 33.4408 17.9751 32.5198C16.4315 30.6509 14.8589 28.8409 13.2523 27.029C10.2992 23.6999 7.33633 20.2722 4.17556 17.1518C4.17167 17.1122 4.16876 17.0726 4.16488 17.032C5.29512 17.1595 6.42729 17.4185 7.56431 17.4456C8.88858 17.4775 10.2361 17.3132 11.5575 17.2359C11.5652 17.2803 11.574 17.3248 11.5817 17.3693C11.477 17.4678 11.3722 17.5664 11.2558 17.6756C11.6836 17.8631 12.5606 17.6669 12.8565 17.3422C13.6899 17.9094 12.7508 18.6458 12.7285 19.4034C12.7023 20.2848 12.9477 21.2173 12.939 22.1054C12.9312 22.9258 13.4231 23.3278 14.2729 23.5926C14.855 23.7743 15.4721 23.9705 15.7359 23.2795C15.1441 23.0225 14.2681 22.9606 13.912 22.2842C13.5182 21.5352 14.6416 21.0182 14.1556 20.164C12.9079 20.1031 13.8558 18.8323 13.9014 17.9723C13.9683 16.7141 13.8752 15.5303 14.0673 14.2508C14.207 13.3183 14.2962 12.3558 14.3021 11.4368C14.3088 10.4646 14.6494 8.82083 14.2729 7.94047C13.5492 8.42849 13.5279 10.9806 13.5599 11.7914C13.621 13.3308 13.4182 14.8103 13.2271 16.3391C10.8211 16.5304 8.50148 16.6 6.09162 16.4386C4.98564 16.3642 3.66622 16.0308 2.56315 16.169C2.13726 16.2222 1.8889 16.4686 1.47367 16.5208C1.06911 16.572 0.390003 16.2376 0.00582123 16.1352C0.347316 17.4707 2.12561 18.7937 3.11032 19.7001C4.28906 20.7844 5.35624 21.9942 6.41468 23.1945C7.31207 24.212 8.29872 25.1707 9.17768 26.194C9.6162 26.7043 9.95284 27.1942 10.4437 27.6629C10.9094 28.1084 11.5507 28.5529 11.7505 29.1704C11.9873 29.9029 11.801 31.0423 11.8039 31.8144C11.8078 32.6068 11.8117 33.3983 11.7243 34.1868C11.5546 35.7214 11.347 36.4645 9.67343 36.3679C8.05812 36.2751 6.44669 36.1273 4.83429 36.0036C3.59346 35.9079 2.45353 36.1215 1.26605 35.8335C1.3165 36.3689 1.65024 36.7486 1.71524 37.3516C1.78994 38.0455 1.78703 38.7442 1.81128 39.4409C1.85106 40.5861 2.58547 41.0451 3.16756 42.0269C3.58085 42.7246 4.01742 43.3585 4.56944 43.9567C4.81295 44.2205 5.12922 44.4476 5.28347 44.7791C5.35042 44.9231 5.22915 45.1328 5.30482 45.2922C5.89467 46.5388 7.1811 47.5071 8.04454 48.4986C8.49469 49.0146 8.72365 49.7336 9.16507 50.2815C9.55799 50.7696 9.99262 51.2237 10.3797 51.7176C11.2005 52.7641 11.9843 53.8667 12.7459 54.9568C14.3612 57.2664 16.2171 59.5335 17.9993 61.7493C19.8387 64.0358 21.6714 66.3627 23.6544 68.5342C24.6624 69.6377 25.6267 70.7693 26.4319 72.0324C26.7463 72.5252 27.0586 73.4993 27.5369 73.8201C28.2209 74.2792 28.1753 73.7283 28.834 73.4587C29.8847 73.0287 31.5476 73.2297 32.6671 73.1843C34.0884 73.1273 35.4951 73.2809 36.9222 73.2036C40.116 73.0306 43.3738 73.2094 46.5772 73.165C49.6749 73.1224 52.7756 73.1737 55.8742 73.1717C57.4925 73.1717 59.1117 73.28 60.7279 73.2693C61.3236 73.2655 61.8688 72.9408 62.3995 72.9214C62.8691 72.904 63.3027 73.5312 63.7374 73.1408C63.5792 73.0374 63.4512 72.9543 63.3134 72.8634C67.7276 72.8634 72.137 72.9697 76.5493 72.9765C78.8068 72.9804 81.0663 72.9862 83.3239 73.0084C84.3445 73.0181 85.366 73.0335 86.3867 73.0471C87.3471 73.0596 88.7897 73.3128 89.691 72.9649C89.6871 72.9214 89.6842 72.8779 89.6803 72.8345C85.4126 71.9261 80.8083 72.9272 76.5105 72.561C72.1302 72.188 67.5918 72.0304 63.1989 72.2962C59.426 72.5243 55.6395 72.3078 51.8685 72.4653C47.5978 72.6431 43.3718 72.4895 39.1031 72.5252C36.9484 72.5436 34.7956 72.5561 32.6419 72.6286C31.6223 72.6624 30.5987 72.7581 29.5791 72.7658C28.6953 72.7726 28.705 72.7968 28.8156 71.9676C28.9359 71.0641 29.0698 70.3596 29.9866 70.1354C30.8238 69.9305 31.9026 70.0204 32.7641 69.9808C34.5948 69.8958 36.6166 69.9508 38.4357 70.1287C42.1514 70.493 45.9563 69.9856 49.6934 70.1721C51.6327 70.2688 53.5391 70.2543 55.4823 70.206C56.37 70.1837 57.183 70.4379 58.0455 70.3016C58.5121 70.2282 58.9787 70.1412 59.4473 70.0823C59.9023 70.0252 60.1323 70.2098 60.4912 70.1779C61.4643 70.0919 62.2773 69.831 63.2998 69.8494C64.2351 69.8668 65.1703 69.7914 66.0987 69.8281C67.9964 69.9025 69.8785 69.8185 71.78 69.802C72.9209 69.7924 74.053 69.7402 75.193 69.7044C76.1758 69.6735 77.1265 69.8706 78.1083 69.8387C79.0212 69.8088 79.9312 69.6793 80.8412 69.6445C81.3059 69.6261 82.8184 70.2137 82.9242 69.5817C84.1795 69.5817 85.4272 69.5314 86.6825 69.5053C87.7196 69.4841 89.6823 70.0629 90.4943 69.2773C88.8247 68.6501 86.6544 69.0289 84.9042 69.056C82.8708 69.0879 80.848 69.2715 78.8155 69.2831C74.6089 69.3063 70.4053 69.4039 66.1987 69.3961C62.188 69.3894 58.2191 69.6832 54.2133 69.7653C52.1653 69.8069 50.1135 69.745 48.0655 69.7286C46.5452 69.717 44.1606 70.1567 42.7859 69.5082C41.2026 70.119 38.8984 69.6329 37.2249 69.5498C35.305 69.4541 33.4297 69.3478 31.5107 69.4561C30.6841 69.5024 29.6344 69.5991 28.8418 69.2754C28.0734 68.9613 27.6233 68.2278 27.1314 67.6036C26.1283 66.3289 25.2629 64.9992 24.0764 63.8821C22.8326 62.7109 21.3852 61.7242 20.2986 60.4042C19.181 59.0464 18.2331 57.564 17.2348 56.1203C16.1386 54.5345 14.9278 53.0279 13.7287 51.5185C13.2271 50.8865 12.2463 50.0545 11.9746 49.3123C11.6749 48.4928 12.2424 48.46 12.9448 48.0319C12.1435 47.1496 11.3217 45.5271 10.0266 45.3918C9.74911 45.3628 9.55799 45.5222 9.30089 45.3918C9.01664 45.2468 8.73141 44.5771 8.57425 44.3442C8.13768 43.7026 7.6264 43.1266 7.12968 42.5323C7.17528 42.5188 7.21991 42.5043 7.26551 42.4907C7.15297 41.9013 6.64558 41.8066 6.22744 41.3321C5.60072 40.6218 5.0875 39.7985 4.52772 39.036C4.73922 38.978 4.89153 38.9355 5.04385 38.894C5.03997 38.8553 5.03705 38.8157 5.03317 38.777C4.49765 38.748 4.35115 38.6891 3.95436 38.3267C4.55295 37.7295 4.48115 37.6812 4.27354 36.8839C5.39698 37.0482 6.5699 36.8501 7.62737 37.0627C8.74888 37.2879 9.89851 37.1777 11.086 37.1159C11.1888 37.7063 11.5604 38.5441 11.5565 39.1075C11.5526 39.7009 11.1248 39.9666 11.0918 40.6257C11.0656 41.1591 11.1287 41.6867 11.6768 41.2857C12.0979 40.9774 12.1308 39.5511 12.1367 39.0872C12.1813 35.9234 12.3365 32.7827 12.3365 29.6072C12.3676 29.5821 12.3976 29.5579 12.4287 29.5328C13.5308 30.9051 15.6486 32.3788 15.5584 34.2419C15.4507 36.4568 15.0714 38.634 14.9977 40.8557C14.986 41.2132 15.116 41.7351 14.7415 41.9138C14.5795 41.9911 13.4852 41.9438 13.2902 41.8916C12.8526 41.7737 12.1386 40.73 11.8223 41.7698C11.4488 43 16.4218 42.2124 17.0573 42.0453C16.7536 41.5283 16.2986 42.0462 16.0532 41.8501C16.0124 41.5688 15.9795 41.333 15.9377 41.046C17.2853 41.133 18.5251 40.8982 19.8504 40.7503C20.5848 40.6682 22.8142 40.1493 22.8365 41.3823C22.6037 41.4809 22.3805 41.5746 22.1584 41.6693C22.1671 41.7157 22.1768 41.7611 22.1855 41.8075C23.0723 41.7389 23.8154 41.9486 24.2355 42.827C21.4958 42.7923 18.8307 43.3006 16.158 43.7403C16.1609 43.8205 16.1648 43.9007 16.1677 43.9809C18.0701 43.9809 19.8911 43.3576 21.7946 43.3547C23.0606 43.3537 24.8021 42.8125 25.3774 44.178C23.5331 44.2882 21.6879 44.2882 19.8591 44.5617C18.0498 44.8332 15.8291 44.8902 14.1847 45.6991C14.1992 45.7541 14.2128 45.8102 14.2274 45.8653C15.3508 45.9629 16.581 45.5135 17.6976 45.3492C18.8987 45.1724 20.1104 45.0642 21.3182 44.9511C22.4611 44.8438 23.6068 44.7163 24.7536 44.6583C25.779 44.6061 26.1108 44.9221 26.8966 45.5734C25.2978 45.7686 23.7077 45.7822 22.107 46.0199C22.1128 46.0759 22.1186 46.132 22.1244 46.188C23.8872 46.4064 26.2243 45.328 27.8105 46.4122C27.8387 46.2286 27.8581 46.1001 27.8561 46.1136C28.1433 46.4364 28.4809 46.8152 28.8175 47.1931C28.3557 46.7437 26.3271 47.1428 25.7538 47.1776C24.6837 47.2443 23.6107 47.3071 22.5445 47.4279C21.4162 47.5554 20.3005 47.7632 19.179 47.9381C18.4107 48.0579 17.5948 47.8309 17.0583 48.4232C19.3401 48.3131 21.5743 47.9256 23.8494 47.7391C25.1261 47.6337 26.3999 47.6733 27.6737 47.5864C28.5944 47.5236 29.5151 47.3583 30.1728 48.1459C28.8787 48.2213 27.5845 48.2976 26.2903 48.372C25.8236 48.3991 25.1668 48.5682 24.7147 48.4513C24.35 48.3566 24.1501 48.0966 23.7931 47.9526C23.8794 48.1865 23.9289 48.3198 23.993 48.4947C22.2001 48.6619 20.4364 48.6813 18.7337 49.1606C19.6845 49.4234 20.9748 49.1809 21.9314 49.0862C22.8792 48.9924 23.8241 48.9924 24.77 48.8832C25.746 48.7702 26.722 48.7073 27.7019 48.6503C28.3587 48.6117 29.9798 48.1884 30.526 48.5218C31.1469 48.9006 30.6899 50.0747 30.6385 50.6903C30.5464 51.7997 30.5163 52.9129 30.4251 54.0223C30.3785 54.5915 30.6133 56.1309 30.2776 56.6209C30.0108 57.0093 29.6742 56.8799 29.2658 57.0741C30.0904 57.4906 30.4532 57.8008 29.5228 58.1158C28.5721 58.4386 27.307 58.3719 26.3213 58.4183C27.1149 59.1179 29.1028 58.5507 30.0778 58.5101C29.8876 59.1344 29.4093 59.7693 29.2949 60.38C29.2056 60.8574 29.3928 61.5841 29.5151 62.0615C29.8517 61.6653 29.9216 61.415 30.0234 60.8999C30.0661 60.9076 30.1078 60.9154 30.1505 60.9221C30.0972 61.3715 30.0428 61.8199 29.9914 62.2567C29.8605 62.3156 29.7421 62.3678 29.4967 62.478C30.2107 62.7273 30.7938 62.9312 31.3768 63.1351C31.3671 63.1979 31.3574 63.2598 31.3477 63.3226C31.11 63.3593 29.9012 63.3854 29.9381 63.8087C29.9837 64.3305 30.8122 63.9662 31.0896 63.9275C31.6213 63.8541 32.5546 63.7603 33.0853 63.8C33.5694 63.8367 33.843 64.1546 34.2921 64.3431C34.0583 63.5255 34.5162 63.6105 35.2157 63.5323C36.2887 63.4115 37.3559 63.3274 38.4095 63.0916C38.4017 63.023 38.394 62.9554 38.3862 62.8867C37.0891 62.8529 35.792 62.9699 34.4318 63.1167C34.589 62.3746 34.9586 61.9098 35.0508 61.1724C34.7927 61.1927 34.5793 61.2101 34.2543 61.2362C34.394 59.7509 34.7103 58.1989 34.6889 56.7156C34.6734 55.6458 34.1621 54.5625 35.5436 54.4784C36.9969 54.3905 38.4648 54.4253 39.921 54.3509C41.1977 54.2861 42.8606 54.4504 44.0092 53.8793C43.9937 53.8281 43.9782 53.7769 43.9617 53.7257C43.2709 53.5643 43.1409 53.6628 42.4851 53.8107C41.7992 53.9653 40.9435 53.831 40.2479 53.831C39.402 54.1682 38.3202 53.9827 37.418 54.0127C37.0212 54.0262 35.0721 54.375 34.8218 53.9228C34.1922 52.7864 38.2271 52.8898 38.814 52.8463C40.7679 52.7013 42.7238 52.5776 44.6767 52.4153C45.61 52.338 46.5239 52.2684 47.461 52.278C48.1887 52.2848 49.119 52.4984 49.737 52.0935C49.0133 51.5301 47.4911 52.0365 46.6034 52.0654C45.3684 52.1051 44.146 51.9978 42.91 52.0896C41.7536 52.1756 40.602 52.2491 39.4437 52.2945C38.7646 52.3206 38.0864 52.3486 37.4083 52.3863C36.9552 52.4124 35.6319 52.738 35.2477 52.539C34.1 51.9437 36.1849 51.9012 36.6739 51.8799C37.7711 51.8335 38.879 51.8509 39.9714 51.7697C41.2346 51.676 42.4861 51.6296 43.7531 51.5852C44.829 51.5475 46.3066 51.7301 47.234 51.1648C46.5491 50.8217 45.4363 50.9657 44.6515 50.9648C43.5765 50.9648 42.5511 51.2373 41.4626 51.2006C39.4194 51.131 37.0484 51.7949 35.0712 51.3117C35.368 50.4603 36.2363 49.9897 37.1366 50.5946C37.7255 50.2419 38.7452 50.4043 39.4272 50.3975C40.3886 50.3878 41.3452 50.4565 42.3056 50.4516C43.2273 50.4468 44.1499 50.411 45.0715 50.4004C45.7701 50.3927 46.6597 50.5802 47.1943 50.1047C46.2202 49.7375 44.9551 49.9617 43.9219 49.8747C43.01 49.7984 42.1659 49.9453 41.2511 49.9105C39.3108 49.837 37.1153 50.1878 35.1905 49.8061C35.1934 49.7568 35.1963 49.7075 35.1983 49.6582C36.2771 49.521 37.3491 49.4398 38.4347 49.377C38.7791 49.3567 40.6961 49.5094 40.1053 48.7093H41.6915C41.8545 48.9199 41.937 49.0262 42.0185 49.1316C42.1378 49.0079 42.2571 48.8832 42.4191 48.7151C42.5113 48.7286 42.683 48.7537 42.8635 48.7798C42.8043 48.8929 42.7577 48.9799 42.6918 49.1055C43.431 49.1635 43.7871 49.119 44.4681 48.832C44.9348 49.1809 45.8302 48.9325 46.4395 48.947C47.3291 48.9683 48.2178 48.89 49.1093 48.8774C50.9381 48.8523 52.6834 48.8958 54.4908 49.0823C52.1673 48.8436 57.3799 49.2195 55.3387 49.1615C55.6734 49.1712 56.1546 49.2127 56.4631 49.1219C56.9938 48.9654 57.313 48.7866 57.9368 48.7566C59.8141 48.6658 61.6981 48.6136 63.5783 48.5788C67.1077 48.515 70.6284 48.4909 74.153 48.3817C77.9841 48.2628 81.8822 47.9565 85.7066 48.3855C85.7017 48.4252 85.6978 48.4658 85.693 48.5054C83.4946 48.6426 81.2972 48.7789 79.0988 48.9161C79.0979 48.9924 79.0959 49.0688 79.095 49.1451C80.5647 49.2553 81.9598 49.0282 83.4277 49.0166C84.2339 49.0098 85.8754 48.5875 85.9646 49.7008C84.8004 50.2864 82.8786 49.7413 81.6484 49.6573C80.1883 49.5577 78.6487 49.7491 77.1876 49.8293C75.7411 49.9095 74.2054 49.9085 72.7647 49.809C71.5859 49.7269 69.4254 49.3104 68.3582 49.894C71.2338 50.3946 74.4188 50.1105 77.3361 50.2062C78.8699 50.2564 80.4085 50.471 81.9414 50.4023C83.1298 50.3492 84.8422 49.8505 85.9278 50.3579C85.7037 50.8063 86.049 50.7531 85.5504 51.0247C85.174 51.2295 84.0951 51.043 83.6731 51.0276C82.2683 50.9773 80.8965 50.9039 79.4917 50.9677C81.5349 51.9195 83.6848 51.2682 85.7357 51.6055C86.4031 52.338 87.6508 51.9253 88.488 52.2887C88.4152 52.3979 88.359 52.4829 88.2678 52.6201C88.945 52.6559 90.6922 53.0608 91.1365 52.5351C90.5777 52.3148 89.8938 52.422 89.2981 52.422C90.1732 52.2017 90.9997 52.1553 91.4635 51.3571C91.7914 50.7928 91.5741 50.7493 92.3454 50.642C93.008 50.5492 93.7133 50.5898 94.3817 50.5608C95.8602 50.498 97.3407 50.4004 98.8211 50.4178C99.7282 50.4284 101.479 50.873 102.231 50.1907C100.672 49.7114 98.5476 50.0071 96.941 50.0873C95.1607 50.1762 93.4193 50.2844 91.6459 50.0796L91.6488 49.8863C93.7278 49.4988 95.9281 49.3722 98.0421 49.234C99.1248 49.1635 100.21 49.1325 101.294 49.09C102.509 49.0427 102.389 49.2601 102.365 50.356C102.335 51.7185 102.286 51.6837 100.888 51.6016C99.897 51.5436 98.9104 51.5311 97.9179 51.5513C96.7353 51.5755 95.5517 51.6093 94.3691 51.6383C93.364 51.6634 92.1843 51.5233 91.2597 51.9244C92.291 52.5699 94.6204 51.8886 95.802 51.8432C97.462 51.7794 99.1471 51.8886 100.806 51.9514C101.271 51.9688 102.367 51.8847 102.31 52.652C102.26 53.313 101.598 53.1265 101.152 53.1072C99.9077 53.0531 97.9276 52.8337 96.8585 53.4744C96.8818 53.5527 96.9051 53.6309 96.9274 53.7092C98.2982 53.7092 99.6894 53.7546 101.058 53.803C102.202 53.8436 102.125 54.2987 102.043 55.2805C100.688 55.2805 99.2946 55.0979 97.9645 55.1037C97.4678 55.1056 97.3727 55.297 96.9012 55.4004C96.549 55.4767 96.0475 55.3462 95.6662 55.383C96.6422 56.1493 98.9706 55.7328 100.134 55.6381C100.72 55.5907 101.517 55.3346 101.847 55.9212C102.058 56.2962 101.708 57.3688 101.625 57.7786C102.102 58.2163 101.62 59.5702 101.574 60.1954C101.504 61.1763 101.82 62.0412 101.822 63.0182C101.826 64.9963 104.21 64.8919 105.716 64.459C107.682 63.8937 107.44 62.6413 107.172 61.0217C106.969 59.7944 107.272 59.6514 108.39 59.6127C109.37 59.5789 110.315 59.5944 111.269 59.3528C111.26 59.288 111.249 59.2242 111.239 59.1595C110.332 59.0745 107.787 59.7538 107.178 59.031C106.243 57.9235 108.265 58.1467 108.699 58.1361C110.148 58.1013 111.579 57.7863 113.035 57.7679C114.239 57.7525 115.61 58.0124 116.761 57.6578C115.655 56.8286 113.408 57.422 112.144 57.5167C111.286 57.5805 107.781 58.2936 107.274 57.5805C106.416 56.3735 110.003 56.5378 110.524 56.5059C112.128 56.4102 113.811 56.559 115.389 56.2759C114.456 55.7608 112.366 55.9154 111.288 55.9464C110.306 55.9744 108.501 56.7301 107.594 56.2256C106.082 55.3859 109.682 55.2612 110.143 55.2341C111.519 55.1539 113.001 55.3124 114.34 54.9829C114.332 54.9239 114.324 54.865 114.316 54.8051C113 54.5316 111.432 54.722 110.1 54.864C109.604 54.9172 107.18 55.5898 107.414 54.7365C107.599 54.0581 110.46 54.0861 111.084 54.0513C112.327 53.9827 113.575 54.0359 114.805 53.8407C114.802 53.7769 114.799 53.7141 114.795 53.6503C112.455 53.2579 109.765 53.9015 107.375 53.9015C107.722 52.3863 108.485 52.6974 109.914 52.6182C111.449 52.5332 113.105 52.5989 114.616 52.4017C113.994 51.7388 112.45 52.0529 111.597 52.106C111.005 52.1428 108.407 52.6994 108.009 52.2945C107.143 51.4103 109.666 51.4914 110.14 51.4653C111.337 51.3977 112.765 51.5368 113.92 51.2208C113.92 51.1706 113.919 51.1213 113.918 51.0711C112.487 50.9261 111.142 51.0324 109.708 51.074C109.225 51.0885 106.983 51.1126 108.172 50.2612C108.935 49.7153 111.025 50.0979 111.934 50.0912C112.918 50.0834 114.381 49.8274 114.932 50.8913C114.773 50.9812 114.608 51.0749 114.442 51.1687C114.457 51.2179 114.472 51.2672 114.487 51.3156C115.6 51.0025 116.025 52.0596 116.558 52.797C117.147 53.6136 117.845 54.377 118.481 55.1607C119.969 56.9891 121.698 58.5893 122.998 60.5491C123.995 62.0528 124.776 63.7903 126.142 64.9722C126.727 65.4776 127.187 66.2188 127.813 66.6507C128.36 67.0266 128.263 66.758 128.705 67.3649C129.076 67.8751 129.36 68.48 129.679 69.0241C128.067 69.4164 126.329 69.2087 124.673 69.2348C123.01 69.2609 121.349 69.3739 119.686 69.4097C117.858 69.4483 116.026 69.43 114.197 69.4416C113.048 69.4493 110.755 68.9922 109.845 69.7083C110.648 70.5026 113.425 69.9248 114.55 69.9547C116.315 70.0021 118.075 69.9315 119.835 69.976C121.541 70.0185 123.232 69.6754 124.949 69.66C125.932 69.6513 126.912 69.6841 127.895 69.6986C128.168 69.7025 129.118 69.5459 129.352 69.7711C129.623 70.032 129.456 70.3509 129.416 70.693C129.324 71.4787 129.379 71.8275 128.54 71.9319C126.936 72.1319 125.285 71.8932 123.691 72.159C121.986 72.4431 120.328 72.416 118.604 72.418C117.048 72.4189 115.251 72.1918 113.737 72.5252C113.737 72.5735 113.737 72.6219 113.737 72.6702C113.947 72.732 114.155 72.7939 114.482 72.8905C110.281 72.8905 106.071 72.3184 101.873 72.4334C99.9077 72.4875 97.9402 72.6306 95.9766 72.6035C94.1683 72.5784 91.5838 72.1 89.918 72.8403C89.9345 72.9137 89.95 72.9881 89.9665 73.0616C93.8083 73.0616 97.6298 72.9388 101.47 72.8325C105.218 72.7291 108.98 73.2181 112.728 73.3234C114.78 73.3814 116.831 73.4336 118.882 73.5341C119.736 73.5757 120.569 73.5844 121.419 73.5708C122.063 73.5602 122.848 73.8027 123.475 73.6066C123.764 73.5157 123.934 73.2858 124.2 73.2065C124.658 73.0693 125.317 73.1495 125.787 73.1369C126.686 73.1137 127.579 73.1099 128.477 73.0509C130.028 72.9495 131.991 72.3667 133.272 73.3979C133.513 73.0925 133.754 72.7919 134.006 72.4953C132.999 71.7241 130.676 70.8467 130.972 69.2551L130.966 69.2725ZM15.9028 0.923734C16.4306 1.76447 16.028 2.17807 15.3411 1.39628C15.5768 1.19818 15.7398 1.06096 15.9028 0.923734ZM14.1721 3.67013C14.7095 3.11834 16.3782 3.85567 16.611 4.46738C15.9882 4.60943 15.0326 3.93105 14.4602 3.67206C14.4243 3.74647 14.3874 3.81992 14.3515 3.89432C15.0636 4.30793 15.7806 4.66451 16.3724 5.24046C15.6477 5.46466 13.0176 4.85585 14.1721 3.6711V3.67013ZM42.6859 17.203C41.7614 17.3219 41.2074 17.4978 40.3828 17.0136C40.0704 17.3113 39.7706 16.8136 39.3699 16.7517C39.4941 16.6918 39.6183 16.6319 39.7163 16.5846C39.2778 15.883 38.7005 16.3555 38.2455 16.226C38.2969 16.0821 38.3416 15.9613 38.3852 15.8395C36.6535 15.9825 34.751 14.7958 33.1415 14.1203C31.0993 13.2642 29.0591 12.4041 27.0266 11.5257C27.0383 11.4793 27.0509 11.4319 27.0625 11.3855C27.2459 11.4039 27.4292 11.4223 27.6116 11.4406C27.633 11.3981 27.6543 11.3556 27.6757 11.3131C27.0586 11.0261 26.7463 10.6299 26.3271 11.2155C26.0875 11.1227 25.7373 10.9864 25.2823 10.8096C25.4986 10.74 25.618 10.7023 25.7431 10.6617C25.3754 10.2143 25.2328 10.194 24.9389 10.4733C21.7975 9.09431 18.6833 7.72691 15.5691 6.35951C15.5924 6.30346 15.6156 6.24741 15.6389 6.19136C17.6442 6.54988 19.3808 7.65347 21.261 8.35988L21.357 8.23908C20.514 7.40994 19.6088 7.35486 18.5659 6.97605C18.2768 6.87071 17.2125 6.35371 17.0816 6.0841C16.8225 5.5497 17.5016 4.94186 17.8063 4.507C17.7548 4.38137 17.6869 4.21709 17.619 4.05281C17.6491 4.02188 17.6801 3.99096 17.7102 3.95907C19.2925 4.77854 20.8341 5.45693 22.5076 6.0696C22.1477 6.76248 22.8918 6.74605 23.5021 6.98861C24.3665 7.33167 25.2309 7.67183 26.0972 8.00715C27.9007 8.7039 29.7285 9.40548 31.4573 10.2723C32.183 10.6366 32.9378 10.8299 33.6771 11.1633C34.5842 11.5721 35.4427 12.1026 36.3663 12.4737C37.8701 13.0776 39.5213 13.4922 40.895 14.3774C40.1616 14.9321 40.0976 14.7147 39.27 14.3127C38.554 13.9648 37.7507 13.3415 37.0571 13.0593C36.799 12.954 36.6011 13.0902 36.3654 13.01C36.0569 12.9047 35.7968 12.5964 35.5077 12.4292C34.6812 11.9509 33.7333 11.6561 32.8815 11.2213C31.2623 10.395 29.5054 9.80555 27.8348 9.06435C26.1389 8.31252 24.0822 7.10554 22.2244 6.9084C22.1962 6.96445 22.1671 7.01953 22.139 7.07558C24.4683 8.49227 27.2236 9.38228 29.7266 10.4946C31.0605 11.0879 32.3965 11.6793 33.7314 12.2698C34.914 12.7935 36.4061 13.1801 37.3763 14.0324C36.8572 14.1039 36.3644 13.6845 36.0627 14.2469C38.2872 15.2027 40.4992 16.1526 42.7112 17.1025C42.7024 17.1364 42.6947 17.1692 42.6859 17.203ZM37.4005 14.3349C37.4306 14.2363 37.4607 14.1368 37.4907 14.0382C38.6452 14.2218 39.758 14.8548 40.8329 15.309C42.1553 15.8675 43.5756 16.3159 44.8571 16.9556C45.3267 17.1895 45.6934 17.5712 46.1804 17.7674C46.6529 17.9578 47.1904 17.9897 47.6764 18.1626C48.7048 18.5298 50.2696 18.985 50.9177 19.9156C46.3279 18.2322 41.9506 16.0821 37.4005 14.3349ZM44.2265 15.8714C44.1916 15.9323 44.1567 15.9932 44.1227 16.054C44.3187 16.1951 44.5137 16.3352 44.7097 16.4763C43.5552 15.7738 42.0427 15.7032 40.9678 14.8287C41.7187 13.9812 44.3216 15.3979 45.2142 15.7632C46.7101 16.3758 48.5049 16.9354 49.8408 17.836C49.6264 17.8776 49.5226 17.8978 49.3558 17.9297C49.7884 18.5018 50.5161 18.4419 50.9662 18.8729C48.6553 18.0235 46.3444 17.1779 44.2275 15.8714H44.2265ZM34.1806 28.8863C34.2378 27.8958 35.3127 28.9772 35.4971 29.1376C35.1944 29.2825 34.1389 29.6092 34.1806 28.8863ZM33.8274 30.2711C33.6227 30.534 33.1842 30.7214 33.5703 31.2385C32.347 31.1428 32.8204 30.3252 33.8274 30.2711ZM35.045 39.2931C34.1815 39.2167 33.84 39.008 33.2861 38.3799C32.4401 37.4212 32.5856 36.8897 32.9349 35.6769C33.7974 35.3464 34.7103 34.9976 35.693 34.6217C35.4699 36.2249 35.2613 37.7314 35.044 39.2921L35.045 39.2931ZM33.9827 34.1269C34.5541 33.9056 35.1255 33.6833 35.6969 33.462C35.3438 34.1143 35.1168 34.1945 33.9827 34.1269ZM34.0738 33.4485C34.4318 33.3384 34.7908 33.2272 35.1488 33.1171C34.8218 33.3065 34.5405 33.6051 34.1389 33.6138L34.0729 33.4485H34.0738ZM35.2041 33.091C35.4563 32.8755 35.7251 32.6841 36.0132 32.5189C35.9996 32.4706 35.986 32.4213 35.9724 32.373C35.3651 32.401 34.298 33.1963 33.7731 33.0059C33.1231 32.7701 33.4995 32.4783 34.0341 32.2309C34.3872 32.0676 35.7134 31.4762 36.0365 31.796C36.6671 32.4213 35.6368 32.9663 35.2051 33.091H35.2041ZM43.9889 29.5357C43.105 29.6159 42.4764 30.561 41.4373 30.3378C41.6314 29.9542 43.432 29.4014 43.9889 29.5357ZM41.9806 30.6499C42.0175 30.963 42.0398 31.1544 42.0621 31.3438C41.8128 31.2433 41.5615 31.1418 41.1696 30.9833C41.5043 30.8461 41.742 30.7475 41.9806 30.6499ZM41.0726 30.2644C41.1317 31.1486 40.7107 31.2568 39.9889 31.5564C39.0119 31.9613 38.9945 31.8521 38.0369 31.5197C38.0156 31.6975 37.9933 31.8753 37.9554 32.1913C37.7604 32.2773 37.4442 32.4155 37.1289 32.5546C37.1017 32.4976 37.0745 32.4416 37.0474 32.3846C37.4364 32.2067 37.5858 32.1623 37.7517 31.7777C37.4888 31.7777 37.2259 31.7728 36.9639 31.7603C37.3976 30.6258 39.9462 30.4122 41.0726 30.2644ZM37.0076 33.1586C37.8924 32.4445 39.0469 32.3981 40.0849 31.9941C39.9811 32.2937 38.1485 33.032 37.0076 33.1586ZM40.4468 32.1004C40.4332 32.0502 40.4196 32.0009 40.4061 31.9507C40.9581 31.7506 41.5111 31.5496 42.0631 31.3496C42.0631 31.3515 42.0631 31.3525 42.0631 31.3544C42.3182 31.2945 42.5724 31.2346 42.8276 31.1747C42.8897 31.2703 42.9518 31.365 43.0138 31.4607C42.2038 31.7902 41.2986 31.913 40.4458 32.1004H40.4468ZM53.5691 29.6198C53.5527 29.557 53.5362 29.4932 53.5197 29.4304C54.9895 29.0516 56.4592 28.6718 57.929 28.293C57.9436 28.351 57.9591 28.4099 57.9737 28.4679C56.5048 28.8515 55.037 29.2362 53.5682 29.6198H53.5691ZM57.6341 27.8127C57.6361 27.7702 57.639 27.7267 57.6409 27.6842C56.4369 28.0698 55.2281 28.4428 54.029 28.8428C52.9919 29.1888 52.6504 29.5174 51.7976 28.7646C51.8044 28.7037 51.8122 28.6428 51.819 28.581C52.3506 28.4727 52.8823 28.3645 53.4139 28.2563L53.4052 28.263C54.8449 27.8272 56.2701 27.6194 57.7243 27.259C58.8177 26.9874 60.0265 26.1844 60.7958 27.2503C59.7248 27.6069 58.7711 27.9538 57.6341 27.8127ZM57.2577 26.8966C55.9577 27.1942 54.6421 27.5962 53.3189 27.7634C53.5488 26.7545 51.1282 28.0804 50.7547 28.3287C50.0756 28.3287 49.4392 28.1422 48.9949 28.6795C48.4157 28.5781 48.3846 28.5259 48.0868 29.0216C48.0082 28.9298 47.9102 28.8158 47.723 28.5984C46.8508 29.2835 46.4007 29.7416 47.9209 29.4198C48.8125 29.2313 50.7703 28.4225 51.59 28.7994C50.9992 29.6169 49.9932 29.6034 49.0928 29.8324C48.6029 29.9571 47.528 30.6248 47.2263 29.8971C46.1824 29.9967 45.3946 30.0653 44.4739 30.5852C43.9646 30.0721 43.4213 30.7949 42.7713 30.6055C43.7909 29.843 46.3987 30.4808 46.6374 28.9955C45.8651 29.1434 45.1201 29.2854 44.3759 29.4285C44.3624 29.3656 44.3488 29.3028 44.3352 29.24C49.7768 27.8591 55.2174 26.4782 60.6591 25.0982C60.6814 25.1668 60.7047 25.2345 60.727 25.3031L57.9853 26.1274C57.9999 26.1892 58.0144 26.2501 58.028 26.3119C58.7226 26.5845 60.109 25.9283 60.757 25.7331C60.7852 25.7833 60.8123 25.8336 60.8405 25.8839C59.848 26.5361 58.4122 26.6337 57.2587 26.8976L57.2577 26.8966ZM61.343 27.2561C61.1994 26.7652 61.2538 26.225 61.9144 26.167C61.8514 26.8058 61.8931 26.9449 61.343 27.2561ZM61.5749 25.8307C61.5283 25.7495 61.4818 25.6674 61.4352 25.5862C61.6312 25.4683 61.8271 25.3514 62.0231 25.2335C62.189 25.5862 61.8669 25.6336 61.5759 25.8307H61.5749ZM108.737 35.0353C109.347 34.7734 110.146 35.9234 110.552 34.9889C111.262 35.3571 110.941 36.7805 110.044 35.877C109.551 36.0055 107.564 35.5388 108.737 35.0353ZM108.449 36.107C108.762 36.3892 109.526 36.1707 109.273 37.0917C109.595 36.9187 109.821 36.797 110.03 36.6849C110.068 36.8056 110.11 36.9371 110.151 37.0685C110.337 37.0057 110.522 36.9438 110.657 36.8984C110.804 37.1526 110.954 37.4116 111.104 37.6715C111.084 37.7044 111.064 37.7372 111.042 37.7701C110.131 37.4918 107.731 37.3632 108.449 36.1079V36.107ZM107.638 34.6082C107.798 35.1677 107.856 35.1851 107.309 35.3783C107.266 35.3146 107.224 35.2508 107.181 35.187C107.333 34.9937 107.486 34.8014 107.638 34.6082ZM103.118 40.7523C103.084 40.7484 103.05 40.7455 103.016 40.7416V39.4351C103.082 39.439 103.148 39.4438 103.214 39.4477C103.182 39.8825 103.15 40.3174 103.118 40.7523ZM105.275 32.0251C105.83 30.7282 106.916 32.3449 106.908 33.0968C106.564 33.9665 104.812 33.1074 105.275 32.0251ZM106.269 35.0063C106.183 34.8961 106.096 34.785 105.976 34.6304C106.135 34.4352 106.259 34.2825 106.384 34.1308C106.638 34.5685 106.573 34.5927 106.269 35.0063ZM106.514 35.8499C106.323 36.05 106.193 36.1862 106.062 36.3215C105.748 35.9707 105.883 35.9166 106.132 35.5165C106.232 35.6035 106.331 35.6895 106.514 35.849V35.8499ZM105.194 35.0672C105.347 35.2121 105.501 35.3571 105.654 35.502C105.636 35.5542 105.62 35.6064 105.603 35.6586C105.196 35.4035 105.13 36.3805 104.574 35.8026C104.783 35.5542 104.988 35.3107 105.193 35.0672H105.194ZM104.884 36.5244C105.255 36.5457 106.71 36.8578 106.893 37.1883C107.156 37.6657 106.825 38.9809 106.787 39.5163C106.719 40.4788 106.853 41.7689 106.59 42.6831C106.392 43.3701 106.304 43.3373 105.53 43.1836C105.171 43.1121 103.491 42.8908 103.698 42.2637C103.798 41.4616 103.925 40.6614 104.003 39.8574C104.076 39.0921 103.934 38.3306 104.006 37.5749C104.076 36.825 104.148 36.4819 104.884 36.5244ZM104.104 33.3355C104.422 33.7848 104.315 33.8341 104.027 34.3105C103.914 34.1858 103.803 34.0612 103.624 33.8631C103.817 33.6505 103.961 33.493 104.104 33.3355ZM103.3 33.0562C103.126 33.407 102.957 33.7481 102.791 34.0824C102.338 33.6959 102.674 32.4725 103.3 33.0562ZM89.8724 10.54C89.9685 10.799 90.0645 11.0589 90.1596 11.3179C90.1023 11.3382 90.0441 11.3585 89.9869 11.3798C89.7347 11.1758 89.66 10.9082 89.8724 10.541V10.54ZM89.1332 12.2688C89.8035 12.1973 90.0771 12.7114 90.7135 12.8747C90.7504 12.838 90.7873 12.8003 90.8251 12.7636C91.1462 13.5531 91.2209 14.2634 90.1053 14.1919C89.6144 14.16 88.4376 13.5251 88.2396 13.0728C88.032 12.5993 88.5394 12.3316 89.1341 12.2678L89.1332 12.2688ZM89.7153 14.9485C89.1768 15.2259 88.9711 15.1582 88.685 14.677C88.9964 14.7591 89.3185 14.8442 89.7153 14.9485ZM83.515 17.9307C81.7677 18.9927 79.4578 19.5039 77.5204 20.1562C77.4942 20.0983 77.469 20.0393 77.4428 19.9813C78.3993 19.503 79.3375 19.0507 80.3503 18.7009C80.9489 18.4941 83.0105 17.578 83.515 17.9307ZM83.1483 17.0107C79.5432 18.3849 75.9012 19.7726 72.2233 21.1748C72.2233 20.6539 72.4009 20.3978 72.3068 19.8344C72.1913 19.1425 72.1603 18.4612 72.0497 17.7645C75.7217 17.1412 79.452 16.9962 83.1492 17.0107H83.1483ZM74.2927 21.8851C73.7368 22.1556 73.1809 22.4262 72.625 22.6968L72.5454 22.546C73.0936 22.2571 73.6407 21.9691 74.1889 21.6802L74.2936 21.8841L74.2927 21.8851ZM72.3834 24.7348C72.4969 25.1852 72.46 25.2354 72.1632 25.5978C72.1244 25.5775 72.0865 25.5572 72.0477 25.536C72.0322 25.2151 72.1438 24.9484 72.3834 24.7339V24.7348ZM73.8901 9.89059L73.9968 9.9708C73.5486 10.8067 71.0213 11.0744 70.1074 11.3324C70.0841 11.2667 70.0599 11.201 70.0366 11.1353C71.3211 10.7207 72.6056 10.3061 73.8901 9.89059ZM70.0405 10.3709C70.9388 9.87803 71.9886 9.89735 72.9577 9.67509C72.0041 9.97466 71.0514 10.2742 70.0977 10.5728C70.0783 10.5052 70.0589 10.4375 70.0395 10.3699L70.0405 10.3709ZM73.8027 8.75995C73.5136 9.04502 72.2806 9.04599 71.8818 9.10687C70.7322 9.28178 69.5117 9.50115 69.1149 10.7545C68.7085 12.0407 69.2401 12.6776 70.6264 12.6138C71.2968 12.5829 71.7373 12.178 72.3485 11.9644C72.98 11.745 73.7979 11.4832 74.4508 11.373C74.314 12.3239 74.3014 13.2825 73.7339 14.0875C73.1295 14.9447 72.1971 15.5351 71.5869 16.3681C71.39 16.6367 71.1804 17.0214 71.0989 17.3528C70.9447 17.98 71.0815 17.7249 71.1959 18.4062C71.3676 19.4208 70.8622 19.1986 70.0987 19.1986C70.0987 19.2566 70.0967 19.3145 70.0967 19.3725C70.4169 19.4363 70.737 19.4991 71.1542 19.5822V21.4454C70.0133 21.6096 67.4686 21.9498 67.0689 20.4143C66.5644 18.4786 68.9199 19.9533 69.699 19.2537C68.9675 19.0826 66.3529 18.8449 67.0534 17.6002C67.3308 17.7075 67.6432 17.7113 67.9372 17.7442C67.9634 16.9189 67.4657 15.855 67.7451 15.0664C66.8807 14.3165 67.1708 12.5635 67.098 11.5663C67.0039 10.28 66.8642 8.5029 67.2241 7.25822C67.5074 8.01199 68.2273 7.7559 68.5125 7.25436C70.1501 7.03886 71.812 6.86588 73.4583 6.86588C73.3429 7.05722 73.2837 7.15386 73.1362 7.39738C73.5311 7.29785 73.8018 7.22923 74.1724 7.1355C74.1015 7.51141 74.0705 8.49517 73.8037 8.75898L73.8027 8.75995ZM66.2394 14.0411C65.9406 13.9135 65.669 13.7976 65.4157 13.6884C65.3566 12.4833 64.3903 6.12662 66.3277 6.46291C66.1269 6.80404 65.9668 6.90647 65.6156 7.10071C65.6301 7.1413 65.6437 7.18285 65.6583 7.22344C67.0757 7.38482 66.2724 10.0587 66.2782 10.9971C66.285 12.0417 66.4839 12.9781 66.2394 14.0401V14.0411ZM66.837 6.32472C66.5004 6.03578 66.1938 5.77293 65.8339 5.46369C65.861 5.35933 65.9037 5.19794 65.927 5.10904C67.6869 5.10904 69.4351 5.10614 71.193 5.02883C71.9362 4.99598 72.6269 4.84909 73.3274 4.79111C74.0841 4.72829 74.1539 4.96988 74.0909 5.61445C74.0366 6.17107 74.12 6.12952 73.5971 6.31023C72.7666 6.59627 71.5433 6.41942 70.6575 6.46774C70.0104 6.5035 68.6968 6.84849 68.1031 6.58274C67.6258 6.36917 67.5249 5.455 66.838 6.32472H66.837ZM67.096 22.2426C67.2008 22.3296 67.3075 22.4175 67.4608 22.5451C67.4104 21.6454 69.2585 22.058 69.8193 22.1131C70.6138 22.1914 71.8935 22.7702 71.1552 23.8506C70.2665 25.1523 65.7 23.6255 67.0951 22.2426H67.096ZM68.1399 32.2928C68.1399 32.2145 68.1399 32.1352 68.1399 32.057C68.8947 31.8473 69.8406 31.3815 70.5488 31.9526C71.1455 32.4348 70.9951 33.0397 70.6517 33.606C71.3046 33.6447 72.0885 33.9462 71.1387 34.3492C70.5411 34.6024 69.244 34.6081 68.6861 34.3202C69.1955 33.6998 70.022 33.5906 70.7118 33.1702C69.7591 32.8455 68.95 32.5691 68.1409 32.2937L68.1399 32.2928ZM69.9279 29.9745C70.6129 30.1745 71.0465 30.5523 70.2723 30.9998C69.1993 31.6202 67.4666 31.051 66.8661 30.0769C67.0068 30.0247 67.1465 29.9716 67.2872 29.9194C67.294 29.9435 67.3008 29.9677 67.3066 29.9918C68.1632 29.931 69.0878 29.73 69.9279 29.9745ZM68.3165 27.4242C69.2217 27.489 68.7337 29.5338 68.0284 29.3299C67.2891 29.1154 67.8741 27.7103 68.3165 27.4242ZM69.0946 29.127C69.1237 28.8206 69.0596 27.0773 69.7155 27.5585C70.2898 27.9809 69.6718 29.012 69.2498 29.2246C69.1984 29.1917 69.146 29.1588 69.0946 29.126V29.127ZM70.4256 27.7296C70.6711 27.0937 70.7041 27.2194 71.2988 27.0415C71.2561 27.344 71.1911 29.5763 70.3548 28.8709C70.1055 28.6602 70.3364 27.9606 70.4256 27.7296ZM68.2137 25.6017C68.1448 25.363 68.0148 25.1726 67.8237 25.0325C67.8256 24.989 67.8266 24.9445 67.8285 24.9011C68.4436 24.8595 70.0987 24.5058 70.6342 24.9532C70.6924 25.0025 71.0009 26.1303 70.9592 26.196C70.7739 26.4907 70.6303 26.338 70.3839 26.3796C69.9832 26.4453 69.4613 26.3912 69.0247 26.4579C68.6696 26.512 68.3825 26.5613 68.0158 26.4743C67.1795 26.2762 66.804 25.7891 66.6566 24.9832C67.2183 25.3301 67.5588 25.6104 68.2146 25.6026L68.2137 25.6017ZM66.6313 27.4851C66.771 27.3015 67.0747 27.2078 67.2978 27.3962C67.6568 27.7006 67.259 28.8979 67.1969 29.2912C66.7982 29.3096 66.6925 29.3048 66.5343 28.9936C66.4616 28.8506 66.5547 27.5866 66.6323 27.4851H66.6313ZM65.7912 22.7606C63.4182 21.7324 61.0141 20.6964 58.5218 19.9862C56.1847 19.3203 53.6613 18.7521 51.559 17.4852C55.0098 17.4852 58.5354 17.5732 61.9183 17.5944C62.8545 17.6002 63.7975 17.7703 64.7308 17.8379C65.3294 17.8814 65.7611 17.7104 65.9522 18.238C66.0551 18.5202 65.9057 19.3754 65.9047 19.6837C65.9028 20.3369 66.0687 20.1562 66.1172 20.7119C66.1754 21.3806 66.0114 22.1334 65.7922 22.7615L65.7912 22.7606ZM64.0575 24.6672C64.4271 24.8209 64.757 24.9571 65.0869 25.0934C65.0684 25.1475 65.05 25.2006 65.0316 25.2547C64.3282 25.3398 63.8839 25.4934 64.0575 24.6672ZM65.7281 26.3796C65.0607 26.5033 64.8763 26.4501 64.4669 25.8983C64.9763 26.0926 65.3672 26.2414 65.7281 26.3796ZM62.806 28.61C61.4206 28.1905 63.4017 27.4532 62.2598 27.0039C62.3403 26.2849 62.3966 25.5563 63.3086 25.1562C62.8943 24.9629 62.6275 24.8382 62.3597 24.7136C62.3539 24.6933 62.3481 24.673 62.3423 24.6527C62.6799 24.6914 63.0185 24.731 63.3706 24.7716C63.1863 26.0288 63 27.2967 62.807 28.61H62.806ZM64.0527 27.0135C63.9052 27.4532 63.7005 28.811 63.2212 28.811C63.2882 28.235 63.1698 25.4702 64.1264 25.7205C63.6782 26.3371 63.6685 26.3554 64.0527 27.0135ZM64.4989 29.0748C64.2506 28.5268 64.2438 27.9857 64.5562 27.3527C65.3129 28.0127 64.4223 28.5326 64.4989 29.0748ZM65.5157 29.1714C64.8084 28.7762 65.6263 27.6281 66.0396 27.3218C66.1143 27.3527 66.188 27.3836 66.2627 27.4136C66.221 27.7383 66.2433 29.5782 65.5157 29.1704V29.1714ZM59.7219 37.8938C59.1165 38.0078 57.962 38.1846 57.5497 37.5014C57.1529 36.8433 57.9572 36.8781 58.5625 36.7264C58.709 37.2792 58.9758 37.9034 59.6375 37.542C60.3729 37.14 59.8742 36.4172 59.1641 36.6298C59.6598 36.1137 60.7988 36.1785 61.0006 36.9777C61.1965 37.7546 60.3641 37.773 59.7219 37.8938ZM70.0832 37.7469H68.6027L68.5998 37.6425C69.0965 37.6184 69.5932 37.5932 70.09 37.5691C70.088 37.628 70.0851 37.687 70.0832 37.7469ZM81.1905 38.3673C80.3736 38.4697 79.6421 38.1044 79.3647 37.3526C80.3309 37.0057 80.8577 37.4792 81.1905 38.3673ZM77.076 33.5654C78.6273 33.5944 79.1483 34.6777 79.7479 35.9978C78.607 36.5737 77.2846 36.423 76.0506 36.4935C74.5837 36.5776 73.1207 36.6017 71.6529 36.6588C68.8802 36.767 66.1065 37.0801 63.3338 37.2337C62.8312 35.9697 61.5303 35.7485 60.6261 34.9184C61.0403 34.525 61.4788 34.1085 61.9164 33.693C63.0447 33.2292 63.8121 33.0755 65.0781 33.376C66.1162 33.6225 66.1414 34.5279 66.9563 35.0749C67.8906 35.7021 69.0354 35.3522 70.0608 35.2131C70.6264 35.1358 71.5714 35.1184 72.0128 34.7173C72.4892 34.2844 72.3592 34.3395 72.073 33.7307C73.7455 33.7307 75.4122 33.5336 77.076 33.5645V33.5654ZM71.4365 28.8255C71.6209 27.9412 71.5898 26.9903 72.3601 26.4627C72.6919 27.4523 72.9257 29.1975 71.4365 28.8255ZM73.5476 27.0705C73.5088 27.6397 73.6834 28.407 72.9354 28.5587C72.9354 27.5663 72.8297 26.5236 72.9742 25.5398C73.0315 25.1513 73.2876 24.1415 73.761 24.788C74.0569 25.191 73.5815 26.5777 73.5476 27.0715V27.0705ZM74.118 28.1364C73.8047 27.0155 74.0851 25.9409 74.1724 24.8576C74.2316 24.8431 74.2907 24.8276 74.3489 24.8131C74.7351 25.8597 74.5323 27.0899 74.118 28.1364ZM74.933 25.7553C74.9766 25.7524 75.0193 25.7495 75.063 25.7476C75.3851 26.2134 75.8478 27.4542 75.0804 27.8591C74.3072 28.2669 74.8922 26.0597 74.933 25.7563V25.7553ZM85.3437 31.08C84.7752 30.9205 84.2057 30.762 83.6372 30.6026C83.6576 30.5591 83.678 30.5146 83.6983 30.4712C84.2639 30.6161 84.8305 30.7611 85.3961 30.906C85.3787 30.964 85.3612 31.021 85.3447 31.079L85.3437 31.08ZM87.2889 31.0896C86.8853 30.9737 86.4808 30.8567 86.0772 30.7408C86.0849 30.7099 86.0937 30.678 86.1014 30.647C86.5089 30.7495 86.9173 30.8509 87.3248 30.9534C87.3122 30.9988 87.3005 31.0442 87.2879 31.0896H87.2889ZM87.9806 31.3747C88.3648 31.0674 88.6636 31.0693 88.8712 31.5786C88.5355 31.5013 88.2581 31.4385 87.9806 31.3747ZM100.734 34.5366C98.8541 33.9491 96.94 33.4959 95.0036 33.1335C93.1661 32.7895 91.1394 32.4522 89.496 31.5332C91.5372 31.6685 93.3902 32.3884 95.3994 32.5237C96.4123 32.5923 97.4173 33.0069 98.3923 33.2668C99.3741 33.5287 100.18 33.607 100.856 34.3772C100.815 34.4303 100.774 34.4835 100.733 34.5357L100.734 34.5366ZM101.398 34.6951V34.0998C101.482 34.0902 101.568 34.0805 101.652 34.0709C101.748 34.5144 101.84 34.5753 101.398 34.6951ZM98.0082 31.6269C99.3615 31.9681 100.714 32.3092 102.106 32.6609C102.047 33.0137 101.992 33.3509 101.933 33.7007C101.398 33.692 101.378 33.1373 101.217 32.7324C100.873 33.119 100.835 33.3403 100.362 33.4186C99.7573 33.52 98.4961 32.9035 97.8801 32.7344C96.4578 32.3449 95.0598 31.7902 93.6424 31.4491C93.4795 31.2761 93.3155 31.1012 93.0691 30.8393C95.5682 31.2259 97.9228 31.9941 100.344 32.7093C100.366 32.6464 100.386 32.5846 100.407 32.5218C99.5982 32.2493 98.7901 31.9767 97.981 31.7052C97.9897 31.6791 97.9994 31.653 98.0082 31.6269ZM92.1242 30.0112C93.3427 30.2779 94.5622 30.5456 95.7807 30.8123C95.771 30.8664 95.7613 30.9215 95.7525 30.9756C94.5311 30.7079 93.3097 30.4412 92.0883 30.1735C92.0999 30.1194 92.1125 30.0653 92.1242 30.0102V30.0112ZM82.1723 27.661C84.2057 28.1142 86.1412 28.695 88.1096 29.3772C89.9355 30.0102 91.7681 31.0027 93.6395 31.4539C93.6551 31.5274 93.6706 31.6008 93.6948 31.7158C92.6034 31.6115 91.7118 30.9795 90.668 30.7311C90.7165 30.8722 90.7659 31.0143 90.8271 31.193C89.2932 30.7359 87.7546 30.3088 86.2101 29.8904C85.1245 29.5966 82.7893 29.3656 82.3857 28.2563C82.0617 28.1857 82.1713 27.9722 82.1713 27.661H82.1723ZM76.4978 26.2801C77.923 26.2027 80.3144 26.8666 81.3836 27.7798C80.9955 27.8166 80.6084 27.8523 80.2223 27.9084C80.4415 28.0601 80.5473 28.1335 80.653 28.207C80.6453 28.2302 80.6385 28.2524 80.6307 28.2756C79.7197 28.0553 78.8058 27.7798 77.8832 27.6117C77.1634 27.4803 76.395 27.6977 76.0244 26.9932C76.8432 26.6502 77.9114 27.2329 78.7845 27.3469C78.1229 26.5545 77.1692 26.7816 76.4969 26.2791L76.4978 26.2801ZM78.8844 28.5104C80.3008 28.695 81.6436 29.183 83.0406 29.5029C83.0377 29.5454 83.0348 29.5889 83.0318 29.6314C82.3469 29.671 81.6678 29.4468 80.9906 29.3512C80.2553 29.2477 79.5218 29.297 78.7855 29.2188C77.4457 29.0767 76.1166 28.7443 74.801 28.4679C75.648 27.5064 77.825 28.3732 78.8835 28.5104H78.8844ZM83.1279 19.1454C82.5225 19.3957 81.5417 19.6035 81.0712 20.0615C80.6249 20.4964 80.7384 20.6723 80.0961 20.8994C79.5296 21.0994 78.6758 21.3835 78.0559 21.2231V21.7343C77.502 21.5681 77.1313 21.773 77.0052 22.1904C76.5056 22.3112 76.0923 22.4108 75.679 22.5103C75.6499 22.5654 75.6218 22.6195 75.5927 22.6746C75.6916 22.7325 75.7906 22.7896 75.9235 22.8678C75.4637 22.921 75.1823 22.7867 74.6963 22.8978C73.9832 23.0601 73.2595 23.3491 72.5571 23.5598C72.5037 23.4737 72.4494 23.3877 72.396 23.3017C74.542 22.46 76.6395 21.3874 78.767 20.4809C79.8623 20.0142 80.9538 19.5184 82.0665 19.0932C82.6671 18.8632 83.482 18.7598 84.0282 18.4303C84.2989 18.266 84.5336 17.9752 84.8344 17.7964C84.8596 17.8379 84.8848 17.8795 84.9101 17.921C84.8111 17.9993 84.7122 18.0776 84.6122 18.1568C84.6248 18.1936 84.6365 18.2303 84.6491 18.267C84.88 18.2119 85.1109 18.1559 85.3428 18.1008C85.3554 18.1375 85.368 18.1733 85.3806 18.21C84.6307 18.5231 83.8798 18.8362 83.1289 19.1474L83.1279 19.1454ZM85.2875 18.9009C85.2661 18.8487 85.2457 18.7956 85.2244 18.7434C85.7463 18.527 86.2683 18.3095 86.7902 18.0931C86.8222 18.1742 86.8543 18.2554 86.8863 18.3375C86.3537 18.525 85.8201 18.7135 85.2875 18.9009ZM85.4999 17.8002C85.5203 17.75 85.5416 17.6997 85.562 17.6495C86.0161 17.52 86.4701 17.3905 86.9396 17.2572C86.8552 17.8959 85.887 18.1075 85.499 17.8002H85.4999ZM90.4768 24.1579C90.4429 25.4722 89.9966 24.8779 89.1865 24.2285C89.1671 24.272 89.1147 24.3918 89.0497 24.5416C88.4783 24.2294 87.9525 23.3723 87.806 22.7702C87.8448 22.7383 87.8836 22.7065 87.9234 22.6746C88.3968 23.065 88.8712 23.4564 89.3408 23.8439C89.722 22.8707 88.4269 22.7548 88.0815 22.1102C87.677 21.3555 87.9923 19.8257 88.2183 19.0507C88.1572 19.0382 88.0175 19.0101 87.8778 18.9811C87.869 18.9328 87.8603 18.8845 87.8516 18.8372C88.7606 18.4835 89.6687 18.1298 90.5777 17.7751C90.5991 17.8273 90.6204 17.8795 90.6418 17.9317C89.9539 18.2245 89.267 18.5183 88.5792 18.8111C88.6035 18.8845 88.6267 18.9589 88.651 19.0324C88.8897 18.9724 90.3876 18.3917 90.5729 18.5318C90.9347 18.8043 90.5874 20.8926 90.5962 21.284C90.6165 22.2629 90.5011 23.1858 90.4759 24.1579H90.4768ZM87.5683 18.0244C87.547 17.9694 87.5246 17.9133 87.5033 17.8582C88.4608 17.4205 89.8084 16.5218 90.8659 16.6986C90.5409 17.4678 88.3774 17.7664 87.5683 18.0244ZM87.6294 17.0407L90.6806 16.1816C89.7977 16.889 88.6772 16.8407 87.6973 17.2398C87.674 17.1731 87.6517 17.1074 87.6284 17.0407H87.6294ZM87.805 16.5295C87.7846 16.4734 87.7643 16.4174 87.7449 16.3613C88.9915 15.8704 90.2653 15.4617 91.5421 15.0548C92.6383 14.705 93.95 14.0943 95.0987 14.2808C95.0948 14.3088 95.0909 14.3378 95.086 14.3658C92.6587 15.0867 90.2324 15.8086 87.805 16.5295ZM91.6517 16.6967C91.6158 16.6696 91.5809 16.6416 91.545 16.6145C92.194 15.8675 93.4116 15.7458 94.3419 15.4491C95.2694 15.1534 96.5287 14.3397 97.4532 14.906C95.4945 15.51 93.5736 16.1033 91.6517 16.6967ZM13.7268 52.3699C14.4544 53.1362 15.019 54.1209 15.6923 54.9413C17.0544 56.6025 18.3476 58.4908 19.4643 60.3162C20.5305 62.0586 22.1429 63.7565 23.5709 65.206C24.3538 66.0004 25.1882 66.7416 25.9905 67.5156C26.429 67.9389 26.7569 68.3235 27.0916 68.825C27.339 69.1971 27.2876 69.5044 27.8445 69.5556C27.6291 69.6919 27.5195 69.7614 27.275 69.9151C27.5719 69.9528 28.1229 69.8407 28.3101 70.0552C28.4751 70.2446 28.3315 71.0631 28.3189 71.2564C28.2743 71.9338 28.4663 73.0867 27.5292 72.7311C26.8006 72.4547 26.9519 71.9116 26.8064 71.3608C26.624 70.6717 25.9197 70.0291 25.488 69.4899C25.2842 69.2357 25.096 68.827 24.8593 68.6211C24.6672 68.4549 24.4295 68.4655 24.2229 68.2848C23.6903 67.8171 23.2508 66.8614 22.8627 66.269C21.8576 64.7315 19.9881 63.2762 19.5069 61.4904C18.3631 60.4225 17.4929 59.1063 16.386 58.0376C16.2453 57.9023 16.0047 57.9206 15.8533 57.8008C15.5215 57.536 15.1587 56.8721 14.9055 56.531C14.4592 55.929 13.4241 55.0264 13.6443 54.2098C12.8876 53.2434 12.1299 52.2771 11.3731 51.3098L11.5313 51.1503C11.9029 51.4412 12.1997 51.7214 12.6508 51.8722C13.2834 52.0828 13.2184 51.8297 13.7287 52.3689L13.7268 52.3699ZM12.2395 50.5434C11.637 50.5386 11.3489 50.24 11.4692 49.6863C11.7447 49.9926 11.9717 50.2468 12.2395 50.5434ZM9.63366 48.3614C10.1866 48.2184 11.7214 47.8608 10.4001 47.5274C10.2468 47.1776 10.1207 46.8887 9.99456 46.5997C9.94314 46.5997 9.89269 46.5997 9.84127 46.5997C10.3923 45.0526 11.5255 46.8316 12.0804 47.4685C11.8175 47.6482 11.1238 47.9555 10.9531 48.2184C10.76 48.516 10.9492 48.9596 10.7814 49.1615C10.1663 49.9027 9.59485 48.89 9.63366 48.3604V48.3614ZM8.65089 45.7909C8.71007 45.8102 8.77022 45.8286 8.8294 45.8479C8.80805 46.0904 8.7547 46.3262 8.66932 46.5533C8.6441 46.765 8.73529 46.9118 8.94291 46.995C8.95843 47.2655 9.19612 47.5052 8.75179 47.6743C7.46827 48.1633 8.48984 46.0924 8.65089 45.7899V45.7909ZM8.46559 45.3125C8.0329 45.7145 7.64484 46.0759 7.19177 46.4963C6.07318 45.0303 4.82459 43.5673 3.87481 41.9853C3.47704 41.3224 3.28689 40.6218 2.84547 39.9859C2.26338 39.1462 2.47293 38.6562 2.40502 37.6715C4.43362 40.2295 6.46319 42.7874 8.46559 45.3116V45.3125ZM3.26264 37.4927L3.34801 37.6338C3.1792 37.4154 3.0104 37.1961 2.78629 36.9062C3.23741 36.9593 3.55757 36.996 3.97279 37.0443C3.69727 37.2183 3.47995 37.3555 3.26264 37.4918V37.4927ZM2.52047 17.8089C2.16345 17.6147 1.83942 17.4379 1.51442 17.261C1.53285 17.2166 1.55031 17.1721 1.56874 17.1267H2.78435C2.68151 17.3905 2.60972 17.5751 2.5195 17.808L2.52047 17.8089ZM11.7408 28.1045C10.078 26.7874 8.72559 25.0006 7.33245 23.4032C5.85684 21.7111 4.26578 20.0905 2.82995 18.3714C3.0395 18.1945 3.21898 18.0418 3.32085 17.9558C5.04676 19.3503 6.38654 21.0868 7.75155 22.8224C8.45686 23.7192 9.14761 24.6276 9.86844 25.5118C10.5233 26.3139 11.5206 27.0502 11.8408 28.0359C11.8068 28.0591 11.7738 28.0814 11.7399 28.1045H11.7408ZM11.7214 26.8821C10.9366 25.8578 9.9606 24.9793 9.42992 23.7617C9.46679 23.7337 9.50269 23.7047 9.53955 23.6767C10.3642 24.5928 11.638 25.5736 11.9552 26.7748C11.8776 26.8106 11.799 26.8463 11.7214 26.8821ZM21.2037 37.0656C21.8082 37.6812 22.4126 38.2967 23.0179 38.9123C22.9801 38.9635 22.9423 39.0157 22.9044 39.0669C22.6182 38.9384 22.3311 38.8108 21.9614 38.6456C22.691 37.9836 21.162 37.9112 21.0873 37.1816C21.1261 37.1429 21.1659 37.1052 21.2047 37.0666L21.2037 37.0656ZM20.6905 36.193L20.5188 36.4307C20.2443 36.2191 19.864 35.7707 19.5409 35.6441C19.2712 35.5378 19.1412 35.7156 18.8987 35.6132C18.2875 35.3561 17.4599 33.9684 17.0379 33.4717C17.0913 33.4176 17.1436 33.3635 17.197 33.3084C18.3612 34.2699 19.5263 35.2314 20.6905 36.192V36.193ZM16.5412 31.6994C17.1019 32.3198 17.6636 32.9412 18.2244 33.5616C18.1866 33.5964 18.1487 33.6302 18.1109 33.665C17.5375 33.0552 16.9642 32.4454 16.3898 31.8357C16.4403 31.7902 16.4898 31.7448 16.5402 31.6994H16.5412ZM16.2181 33.9336C17.035 34.7347 17.7471 35.4334 18.4592 36.1321C18.4349 36.1959 18.4097 36.2606 18.3854 36.3244C17.9411 36.2471 16.5761 36.2471 16.2657 35.8905C16.0037 35.59 16.2191 34.324 16.2191 33.9336H16.2181ZM19.8319 37.8406C18.8705 37.8899 17.9091 37.9865 16.9477 38.0223C16.2404 38.0484 16.0648 38.0938 16.0542 37.3352C17.036 37.2917 19.4536 36.622 19.8319 37.8397V37.8406ZM13.72 28.7974C14.2186 29.0854 14.8599 29.2275 14.8347 30.0547C14.4379 29.6662 14.0411 29.2787 13.6433 28.8902C13.6685 28.8593 13.6947 28.8283 13.72 28.7974ZM12.19 26.7961C12.6557 27.2232 13.4076 27.6146 13.3028 28.2727C12.645 27.8852 12.255 27.4213 12.19 26.7961ZM15.5768 32.2715C14.5038 31.0945 13.4541 29.9445 12.4054 28.7936C13.2048 28.9414 15.67 31.7497 15.5768 32.2715ZM22.723 40.1792C20.4606 40.3696 18.1982 40.56 15.8145 40.761C15.8145 40.2672 15.5798 39.0805 15.896 38.7094C16.2657 38.2765 17.0777 38.4417 17.6016 38.4272C18.5319 38.4001 20.4441 37.9092 20.8467 39.0051C20.0648 39.2592 17.0757 38.4775 16.7536 39.4689C17.2659 39.8197 19.0248 39.6013 19.6893 39.5472C20.708 39.4651 21.3386 39.38 22.0332 40.1927C22.105 40.0362 22.1467 39.9454 22.204 39.8207C22.3835 39.897 22.5629 39.9734 22.7424 40.0497C22.7356 40.0932 22.7288 40.1367 22.722 40.1792H22.723ZM23.0771 40.4479C23.2488 40.7358 23.4215 41.0257 23.6107 41.3456C23.0354 41.1446 22.9316 40.961 23.0771 40.4479ZM22.7356 39.3491C23.2828 39.152 23.3138 39.1723 24.0541 40.2324C23.6359 39.9521 23.2188 39.6728 22.7356 39.3491ZM25.0815 42.8831C24.8127 42.5893 24.544 42.2965 24.2753 42.0027C24.3286 41.9563 24.382 41.91 24.4353 41.8626L25.2415 42.7362C25.1882 42.7845 25.1348 42.8338 25.0815 42.8821V42.8831ZM26.233 44.236C25.9992 44.0108 25.7654 43.7857 25.5316 43.5605C25.5859 43.5064 25.6393 43.4513 25.6936 43.3972C25.9226 43.6272 26.1506 43.8572 26.3795 44.0872C26.331 44.1365 26.2815 44.1857 26.233 44.236ZM27.0538 43.5325C26.9286 43.3585 26.9054 43.203 26.7016 43.0106C26.4581 42.7807 26.0555 42.599 25.7829 42.368C25.8101 42.3207 25.8372 42.2724 25.8644 42.225C26.0788 42.2878 26.6512 42.4009 26.8501 42.5323C27.3041 42.8319 27.0975 42.9237 27.4186 43.2223C27.8066 43.5818 28.1743 43.7538 28.5265 44.3017C27.7222 44.5288 27.405 44.0224 27.0538 43.5335V43.5325ZM28.1821 44.7163C28.9136 44.6264 29.5849 45.0642 29.8129 45.7628C29.0436 45.7677 28.5343 45.3792 28.1821 44.7163ZM29.9672 46.4045C29.8032 46.3427 29.6393 46.2808 29.4753 46.2199C29.5015 46.1465 29.5287 46.073 29.5549 46.0006C30.1069 46.1706 30.0623 46.046 29.9672 46.4055V46.4045ZM30.5396 62.4316C30.4658 62.4094 30.3921 62.3871 30.3174 62.3659C30.4231 62.047 30.5279 61.7281 30.6337 61.4092C30.689 61.4227 30.7433 61.4353 30.7986 61.4488C30.7123 61.7764 30.6259 62.105 30.5396 62.4326V62.4316ZM31.3594 62.6229C31.1876 62.5785 31.0489 62.5427 30.9102 62.5079C30.8946 62.4577 30.8791 62.4074 30.8626 62.3572C31.0246 62.2364 31.1867 62.1166 31.4641 61.9098C31.4176 62.2287 31.3923 62.3939 31.3594 62.6229ZM33.1823 63.2056C32.9038 62.8075 32.963 62.7814 33.2221 62.3639C33.3171 62.4828 33.4112 62.6026 33.5548 62.7833C33.3986 62.9612 33.29 63.0839 33.1823 63.2056ZM34.3969 50.8961C34.2252 51.5881 34.1544 51.5591 33.4627 51.9157C34.0215 51.9997 34.1912 52.1428 34.2475 52.6617C34.3183 53.315 34.0583 54.2088 34.0593 54.9075C34.0622 56.6721 33.8594 58.4473 33.7527 60.208C33.7324 60.5424 33.8915 61.5957 33.5849 61.787C33.2201 62.0161 32.3683 61.3541 32.087 61.1376C31.696 60.8361 31.305 60.4245 30.9674 60.1027C30.5823 59.7364 30.6502 60.179 30.4678 59.5973C30.363 59.2639 30.6337 58.5913 30.6899 58.2685C30.7132 58.2617 30.7365 58.256 30.7608 58.2492C30.5687 57.2732 30.7268 56.8074 30.8102 55.8516C30.8471 55.4264 30.7608 55.0486 30.8452 54.6282C30.9073 54.319 31.1789 54.0532 31.2148 53.7353C31.2953 53.0395 30.884 52.2239 31.0179 51.4499C31.1537 50.6633 31.4816 50.0042 31.3875 49.1519C31.7833 48.4735 34.1486 48.3247 34.5036 48.9045C34.7093 49.2408 34.4842 50.5473 34.3979 50.8961H34.3969ZM34.6802 47.5873C34.393 48.3691 32.0375 47.8888 31.4573 47.6637C31.4699 47.6086 31.4835 47.5525 31.4961 47.4975C31.6582 47.4772 31.8192 47.4559 32.0113 47.4317C32.0006 47.2617 31.9909 47.11 31.9773 46.9109C32.4537 46.9109 34.9819 46.7679 34.6802 47.5883V47.5873ZM35.3069 49.2272C35.2177 49.0581 35.1381 48.9064 35.0576 48.7537C35.6048 48.5112 39.6057 48.7064 39.8667 48.9847C38.3222 48.9847 36.8427 49.0591 35.3079 49.2272H35.3069ZM90.8785 49.2572C90.5903 49.2988 90.3313 49.3364 90.0723 49.3741C90.0665 49.4195 90.0606 49.465 90.0538 49.5104C90.7698 49.8322 90.6544 49.7955 90.7262 50.44C90.7815 50.9406 90.8183 51.505 90.2954 51.7108C89.5212 52.0162 87.3937 51.3639 86.6631 51.0266C87.2171 50.0622 86.96 50.1762 86.5836 49.2562C86.9464 49.1606 87.2297 49.0862 87.513 49.0117C87.512 48.9557 87.5111 48.8987 87.5101 48.8426C87.3025 48.7479 87.0939 48.6523 86.8863 48.5576C86.8863 48.5228 86.8863 48.487 86.8863 48.4522H90.9483C90.926 48.7151 90.9037 48.9808 90.8804 49.2572H90.8785ZM96.6499 49.0533C95.933 49.0958 92.0252 49.8177 91.7196 48.9992C91.5207 48.4658 95.9766 48.5189 96.4996 48.5141C98.4797 48.4928 100.52 48.2966 102.49 48.3884C102.506 48.4619 102.52 48.5353 102.536 48.6097C100.687 49.0794 98.5553 48.9412 96.6499 49.0552V49.0533ZM106.696 51.0585C106.653 51.2228 106.549 51.3339 106.386 51.3929C106.217 52.1853 106.59 53.4106 106.615 54.26C106.646 55.3124 106.539 56.3716 106.6 57.422C106.65 58.283 107.018 59.0967 106.03 59.5683C107.271 59.776 106.399 62.8123 106.449 63.7255C105.781 63.8067 105.118 63.8599 104.446 63.9034C104.145 63.9227 103.199 64.1633 102.924 63.9749C102.3 63.5477 102.575 61.8856 102.552 61.2004C102.515 60.0399 102.708 58.8242 102.613 57.6897C102.528 56.6547 102.204 56.0536 103.273 55.5192C103.154 55.2544 102.726 55.3066 102.59 55.0428C102.409 54.693 102.783 53.8928 102.877 53.542C102.934 53.5517 102.99 53.5614 103.046 53.571C103.046 54.3654 103.861 53.629 104.287 53.4986C104.294 53.4396 104.3 53.3807 104.306 53.3217C103.998 53.2473 103.264 53.2492 103.055 52.9816C102.765 52.6114 103.025 51.6374 103.057 51.2315C103.091 50.8024 102.969 49.8979 103.206 49.5346C103.434 49.1867 103.782 49.2379 104.131 49.0456C103.752 48.9238 103.604 48.832 103.328 48.5469C104.039 48.1981 105.012 48.3807 105.797 48.4513C106.581 48.5218 106.666 48.4629 106.805 49.1451C106.742 49.637 106.528 50.0467 106.489 50.5202C106.662 50.6681 106.732 50.8469 106.699 51.0566L106.696 51.0585ZM103.122 47.3825C102.675 48.0261 101.319 47.7033 100.673 47.6811C99.4333 47.6395 98.1925 47.5941 96.9517 47.597C94.6213 47.6038 92.325 47.4105 89.9985 47.3573C87.7061 47.3042 85.4155 47.5641 83.1211 47.5448C80.9489 47.5265 78.7748 47.4202 76.6084 47.5371C72.1399 47.7787 67.6849 47.799 63.2135 47.9169C61.0918 47.9729 58.9477 47.9169 56.8066 47.971C54.5442 48.029 52.1935 47.9487 49.933 47.8386C45.0531 47.5989 40.1596 47.9091 35.2856 47.9091C35.5058 46.6297 37.1706 46.7012 38.1563 46.7147C39.5581 46.734 40.9639 46.7476 42.359 46.7244C45.5033 46.6703 48.699 47.0027 51.85 46.8065C54.6897 46.6297 57.5109 46.6587 60.3554 46.7002C63.23 46.7418 66.0163 46.6664 68.8986 46.6934C75.0998 46.7505 81.2943 46.1842 87.4985 46.2151C88.9644 46.2219 90.4206 46.1378 91.8865 46.217C93.5697 46.3079 95.281 46.6142 96.9681 46.5688C98.5301 46.5263 99.9902 46.4393 101.572 46.5321C103.26 46.6306 104.948 46.7292 106.636 46.8055C109.98 46.9563 113.363 46.8655 116.712 46.8761C118.527 46.8819 120.332 46.8123 122.149 46.8626C123.666 46.9041 125.564 46.7128 126.892 47.5467C126.879 47.6047 126.865 47.6637 126.853 47.7217C124.98 48.143 122.709 47.799 120.788 47.7874C118.685 47.7748 116.582 47.7748 114.478 47.7738C112.404 47.7719 110.191 47.9816 108.138 47.6975C106.504 47.4714 104.719 48.1681 103.125 47.3834L103.122 47.3825ZM110.593 48.6165C109.963 48.8958 108.335 48.9518 107.916 48.6165H110.593ZM110.202 49.7317C109.467 49.7703 108.411 50.0516 107.812 49.5626C108.453 49.0021 113.062 48.5991 113.406 49.6689C112.335 49.6689 111.273 49.6756 110.202 49.7317ZM125.839 72.7233H124.027C124.027 72.6914 124.026 72.6586 124.025 72.6267C124.63 72.5938 125.236 72.561 125.84 72.5272C125.84 72.5929 125.839 72.6576 125.838 72.7233H125.839ZM130.376 71.7415C130.147 71.4748 130.404 70.6486 130.44 70.3364C130.495 70.3181 130.55 70.3007 130.605 70.2823C130.982 70.7635 131.359 71.2448 131.815 71.8275C131.457 71.841 130.63 72.0353 130.376 71.7415Z" fill="#0A0A0A"/>
<path d="M52.2992 51.9245C53.1209 51.4066 54.0901 51.654 54.9788 51.4713C54.9671 50.6673 55.7151 51.3128 55.9771 50.9475C55.2931 50.8432 54.5704 51.0104 53.9116 50.9234C53.7486 50.9021 53.3625 50.6992 53.1316 50.6634C52.9114 50.6296 52.6058 50.7407 52.3846 50.6441C51.6288 50.3155 52.1003 50.0392 52.7338 50.014C53.7321 49.9744 54.6916 50.5465 55.6016 49.901C54.744 49.842 53.8864 49.784 53.0297 49.7251C53.0278 49.67 53.0259 49.6149 53.0239 49.5589C53.7059 49.3849 54.321 49.5531 55.0089 49.5946C55.8568 49.6459 56.7348 49.5086 57.5827 49.4391C59.2659 49.3028 61.0306 49.1134 62.709 49.3415C61.2305 49.5463 59.7607 49.7493 58.2899 49.9532C58.2948 50.0111 58.2987 50.0701 58.3035 50.1281H61.5458C61.5574 50.1793 61.5691 50.2305 61.5807 50.2817C60.5776 50.5484 59.5424 50.389 58.5325 50.5803C58.0513 50.6721 57.7399 50.9321 57.2887 51.106C56.7076 51.3302 56.1003 51.2713 55.5036 51.4278C60.1594 51.3389 64.8152 51.249 69.471 51.1601C69.4729 51.2346 69.4749 51.309 69.4768 51.3824C63.7616 51.625 58.0455 51.8675 52.3303 52.111C52.3206 52.0492 52.3099 51.9864 52.3002 51.9245H52.2992Z" fill="#0A0A0A"/>
<path d="M46.9769 58.0338C47.9888 57.6482 49.2529 57.9295 50.3288 57.8299C51.5522 57.7169 52.7542 57.6714 53.9824 57.6482C55.2805 57.6241 56.2691 57.1196 57.5128 56.9718C58.5228 56.852 59.522 56.9882 60.5223 57.0394C63.1378 57.1738 65.8087 56.9592 68.4232 56.8587C69.8173 56.8046 71.2105 56.7524 72.6046 56.7273C73.5738 56.7099 74.9902 56.3804 75.8653 56.7978C75.1998 57.5806 73.4477 57.0076 72.4717 57.1081C71.4239 57.2163 70.4169 57.2385 69.3555 57.2627C66.8273 57.3197 64.2787 57.4714 61.7524 57.6067C56.856 57.8695 51.8888 58.2194 46.9818 58.2194C46.9798 58.1566 46.9769 58.0947 46.975 58.0319L46.9769 58.0338Z" fill="#0A0A0A"/>
<path d="M108.725 69.3778C109.048 69.4484 109.267 69.4957 109.563 69.6532C108.967 70.5143 106.272 69.9016 105.288 69.8697C103.621 69.8146 101.955 69.8736 100.285 69.8233C98.5699 69.7721 96.8537 69.7344 95.1384 69.6832C94.3206 69.659 93.5037 69.6339 92.6859 69.6107C92.0155 69.5924 91.1317 69.7798 90.5622 69.4165C91.5149 68.6898 94.1178 69.0831 95.2966 69.1188C97.0205 69.171 98.7387 69.3411 100.464 69.3807C102.203 69.4204 103.974 69.4319 105.711 69.3411C106.352 69.3073 106.876 68.7632 107.279 68.7932C107.878 68.8376 108.059 69.5576 108.701 69.4474L108.725 69.3778Z" fill="#0A0A0A"/>
<path d="M47.3708 56.2027C47.9684 56.0944 49.1695 56.1331 49.5081 55.5523C50.7072 56.0017 52.0353 55.7794 53.3053 55.7494C54.6965 55.7166 56.0886 55.6857 57.4798 55.6393C58.8022 55.5958 60.1245 55.5397 61.4458 55.4847C62.6236 55.4363 63.845 55.2624 64.9889 55.6142C64.4892 55.9485 47.8462 56.5496 47.3708 56.2027Z" fill="#0A0A0A"/>
<path d="M81.3903 55.644C81.7318 55.644 82.3033 55.788 82.5856 55.5928C82.8233 55.4285 82.6118 55.1608 82.9591 54.985C83.3598 54.7811 83.906 55.1347 84.2659 55.2265C84.8868 55.3841 85.4601 55.3454 86.1296 55.327C89.2282 55.2439 92.3327 55.2623 95.4314 55.2623C95.4431 55.3145 95.4557 55.3667 95.4673 55.4188C93.3543 55.9658 90.6912 55.5976 88.4996 55.6604C86.1257 55.729 83.7721 55.8643 81.3952 55.8643C81.3933 55.7909 81.3913 55.7165 81.3903 55.643V55.644Z" fill="#0A0A0A"/>
<path d="M35.5262 57.0674C36.1151 56.5175 37.1842 56.7166 37.9225 56.6596C38.9751 56.5784 40.0335 56.5552 41.0871 56.4798C42.0262 56.4122 42.9828 56.1851 43.9112 56.1445C44.7446 56.1087 45.902 55.9222 46.6839 56.2034C46.0844 56.6895 45.1521 56.5755 44.3973 56.6441C43.365 56.7378 42.3357 56.8606 41.3035 56.9514C39.6193 57.0993 37.1231 57.6346 35.5271 57.0683L35.5262 57.0674Z" fill="#0A0A0A"/>
<path d="M62.4839 54.3723C61.4264 54.4892 60.3932 54.5095 59.329 54.5134C58.0959 54.5172 56.9007 54.7453 55.6744 54.7549C54.9012 54.7617 54.1192 54.983 53.378 55.0014C52.9764 55.012 52.8726 54.8284 52.4787 54.7395C51.9742 54.6255 51.3989 54.6999 50.8857 54.6999C50.8779 54.637 50.8711 54.5742 50.8634 54.5114C52.8435 54.0978 54.9652 54.3645 56.9802 54.2418C58.807 54.1297 60.6494 54.1519 62.4839 54.1519C62.4839 54.2254 62.4839 54.2988 62.4839 54.3723Z" fill="#0A0A0A"/>
<path d="M96.4608 53.3459C94.5893 53.3913 92.7266 53.4696 90.8581 53.5798C90.8513 53.6232 90.8455 53.6677 90.8387 53.7112C91.1278 53.7846 91.4169 53.859 91.706 53.9325C91.7147 53.9866 91.7235 54.0417 91.7312 54.0958C90.3449 54.5104 88.7296 54.2813 87.3073 54.1016C87.4393 53.2348 87.1502 53.7711 86.5642 53.6097C87.0008 53.1401 87.5363 53.3759 88.0311 53.2966C88.0495 53.3449 88.0689 53.3942 88.0873 53.4425C87.9437 53.5392 87.8002 53.6368 87.5693 53.7924C88.3687 54.2021 89.0808 53.7692 89.7929 53.773C89.7967 53.7344 89.8016 53.6948 89.8055 53.6561C89.3505 53.6232 88.8945 53.5904 88.3939 53.5537C88.8188 52.8279 91.2083 53.1758 91.9117 53.1565C93.4251 53.113 94.9357 53.0966 96.4491 53.0966C96.453 53.1797 96.4559 53.2628 96.4598 53.3459H96.4608Z" fill="#0A0A0A"/>
<path d="M35.238 55.8256C35.7309 55.0245 37.5936 55.2535 38.3833 55.2284C39.856 55.183 41.3607 55.2264 42.8188 55.0071C42.8043 55.7744 36.1257 55.9048 35.239 55.8256H35.238Z" fill="#0A0A0A"/>
<path d="M87.838 52.6395C86.6767 52.855 85.4291 52.6966 84.2494 52.8174C83.3151 52.9121 81.8036 53.0908 81.0081 52.568C81.3467 52.2926 81.6057 52.2114 82.0336 52.2839C82.1917 52.311 82.3042 52.5274 82.4837 52.5603C82.8009 52.6183 83.2084 52.5043 83.5266 52.483C84.846 52.396 86.5826 52.0916 87.8487 52.4859C87.8448 52.5371 87.8409 52.5883 87.837 52.6395H87.838Z" fill="#0A0A0A"/>
<path d="M83.0425 56.9089C81.8376 56.9679 80.6365 57.078 79.4297 57.0403C78.476 57.0104 77.1333 57.3041 76.3251 56.8393C77.3021 56.4103 78.6506 56.7118 79.7149 56.6828C80.8383 56.6518 81.9414 56.5803 83.0415 56.8181C83.0415 56.848 83.0425 56.8789 83.0435 56.9089H83.0425Z" fill="#0A0A0A"/>
<path d="M54.256 53.1547C52.0431 53.3963 49.8282 53.5896 47.6075 53.6911C47.9723 53.2813 53.6089 52.8358 54.256 53.1547Z" fill="#0A0A0A"/>
<path d="M58.0998 23.8372C57.6739 23.8372 53.8612 22.9259 54.0164 22.2987C54.1357 21.8175 57.5798 23.4168 58.1289 23.6681C58.1192 23.7241 58.1095 23.7811 58.0998 23.8372Z" fill="#0A0A0A"/>
<path d="M116.772 60.6719C114.378 60.841 111.983 61.0092 109.589 61.1783C109.584 61.1019 109.578 61.0266 109.573 60.9502C111.961 60.6864 114.355 60.5115 116.756 60.4438C116.761 60.5202 116.767 60.5956 116.772 60.6719Z" fill="#0A0A0A"/>
<path d="M81.2797 54.3752C81.7454 54.2331 86.9843 53.5634 86.992 54.005C86.9978 54.3413 81.8599 54.5636 81.3166 54.5636C81.304 54.5008 81.2914 54.438 81.2797 54.3752Z" fill="#0A0A0A"/>
<path d="M73.8939 52.1564C75.0989 51.8762 76.4988 52.0182 77.7367 52.0433C78.4265 52.0578 79.1192 52.0801 79.808 52.1236C80.5415 52.1699 80.9897 52.2076 80.3882 52.857C80.3445 52.8232 80.3018 52.7894 80.2582 52.7555C80.2902 52.6492 80.3222 52.5429 80.3862 52.3323H73.9104C73.9046 52.2733 73.8998 52.2154 73.8939 52.1564Z" fill="#0A0A0A"/>
<path d="M15.9668 46.8608C17.9256 46.6269 19.7058 46.0625 21.5676 46.021C21.5918 46.078 21.6151 46.135 21.6393 46.192C20.7701 46.6066 19.6855 46.6588 18.7318 46.7893C17.9566 46.8956 16.6081 47.3063 15.9668 46.8608Z" fill="#0A0A0A"/>
<path d="M21.7596 41.6482C20.9748 41.9951 20.1764 41.9333 19.3255 41.97C18.7279 41.9961 17.9566 42.2618 17.4628 41.9004C18.2089 41.2897 20.7429 41.4115 21.717 41.4791C21.7315 41.5351 21.7461 41.5912 21.7606 41.6472L21.7596 41.6482Z" fill="#0A0A0A"/>
<path d="M79.2414 51.1822H73.0887C73.0839 51.1513 73.08 51.1203 73.0751 51.0894C74.1666 50.9899 75.2405 51.0237 76.3339 50.987C77.2361 50.9561 78.4634 50.642 79.2754 51.0208C79.2647 51.0749 79.2531 51.1281 79.2424 51.1822H79.2414Z" fill="#0A0A0A"/>
<path d="M47.8743 55.3376C46.8751 55.3376 45.8748 55.3318 44.8756 55.3376C44.7233 55.3376 42.7441 55.2554 43.1274 55.0583C43.4009 54.9182 43.8385 55.1008 44.1189 55.1124C44.5894 55.1327 45.088 55.0438 45.5557 55.008C46.3531 54.9481 47.2049 54.7529 47.9519 55.0515C47.9257 55.1472 47.9005 55.2419 47.8743 55.3376Z" fill="#0A0A0A"/>
<path d="M25.3987 55.9755C25.9294 55.6779 26.9005 55.6798 27.5389 55.6103C28.1093 55.5475 28.9136 55.444 29.4074 55.7523C28.7293 56.5312 26.4552 56.1678 25.4647 56.1678C25.4424 56.1041 25.421 56.0393 25.3987 55.9755Z" fill="#0A0A0A"/>
<path d="M64.9695 54.1278C66.5091 54.0225 68.8918 53.4127 70.3383 53.9413C70.3315 53.9993 70.3238 54.0582 70.317 54.1162C68.5387 54.1761 66.7594 54.237 64.9811 54.2969C64.9772 54.2409 64.9733 54.1839 64.9704 54.1278H64.9695Z" fill="#0A0A0A"/>
<path d="M95.5595 57.8261C94.8377 58.0697 93.95 58.0339 93.1923 57.9614C92.5986 57.9054 91.8797 57.9836 91.3354 57.8455C91.7827 57.2077 94.8416 57.3574 95.5323 57.7015C95.541 57.743 95.5507 57.7846 95.5595 57.8261Z" fill="#0A0A0A"/>
<path d="M47.8918 51.0393C48.6388 50.8277 50.4947 50.5262 51.137 50.9871C50.5849 51.4829 48.5651 51.4026 47.8957 51.2345L47.8928 51.0393H47.8918Z" fill="#0A0A0A"/>
<path d="M115.985 59.4515C114.806 59.6921 112.772 59.5385 112.506 59.1596C113.409 58.8214 115.02 59.2167 116.003 59.2688L115.985 59.4515Z" fill="#0A0A0A"/>
<path d="M74.5721 55.2516C75.4821 55.1038 77.9987 54.494 78.6885 55.1743C77.7765 55.7522 75.679 55.3598 74.5973 55.3598C74.5886 55.3241 74.5798 55.2874 74.5721 55.2516Z" fill="#0A0A0A"/>
<path d="M20.1288 50.4634C21.2571 50.3087 22.3854 50.1541 23.5127 49.9985C23.5224 50.071 23.5312 50.1435 23.5409 50.215C22.4455 50.6257 21.2988 50.6576 20.1463 50.6489C20.1405 50.587 20.1346 50.5252 20.1288 50.4624V50.4634Z" fill="#0A0A0A"/>
<path d="M63.7742 59.4079C62.645 59.52 61.5147 59.6331 60.3428 59.75C60.5979 59.2688 63.2455 58.9692 63.7742 59.4079Z" fill="#0A0A0A"/>
<path d="M57.311 20.9332C56.9375 21.1197 54.9962 20.4597 54.1406 19.9234C54.8177 19.4402 56.6533 20.6733 57.311 20.9332Z" fill="#0A0A0A"/>
<path d="M69.0519 52.1062H73.4651C73.4651 52.1584 73.4651 52.2115 73.4651 52.2637H69.0529C69.0529 52.2115 69.0529 52.1584 69.0529 52.1062H69.0519Z" fill="#0A0A0A"/>
<path d="M44.3371 53.8515C44.9124 53.5606 46.5559 53.2542 47.1399 53.5538C46.7868 54.0728 44.9871 54.0109 44.4002 54.0824C44.3789 54.0051 44.3585 53.9288 44.3371 53.8515Z" fill="#0A0A0A"/>
<path d="M65.1819 49.1956C66.2278 48.8661 67.2765 49.2226 68.3233 49.1173C68.3233 49.1859 68.3233 49.2536 68.3243 49.3222H65.1829V49.1956H65.1819Z" fill="#0A0A0A"/>
<path d="M25.3124 54.352C26.0691 53.8031 26.948 54.4931 27.7756 53.9741C27.6553 54.926 25.9692 54.609 25.2745 54.5414C25.2871 54.4786 25.2998 54.4148 25.3124 54.352Z" fill="#0A0A0A"/>
<path d="M50.7237 59.7104C51.4503 59.7104 53.1239 59.4031 53.6768 59.8776C53.3606 60.1955 50.9963 60.1279 50.7237 59.7104Z" fill="#0A0A0A"/>
<path d="M27.957 54.003C28.7758 53.9644 29.4763 53.9315 30.2301 53.8958C30.0545 54.434 28.4353 54.5075 27.957 54.003Z" fill="#0A0A0A"/>
<path d="M74.0443 54.0485H71.4753C71.4753 53.9973 71.4753 53.947 71.4744 53.8958C72.3271 53.5624 73.1877 53.7016 74.0492 53.8485C74.0482 53.9151 74.0463 53.9818 74.0453 54.0485H74.0443Z" fill="#0A0A0A"/>
<path d="M79.1832 55.0438C80.2097 55.0438 81.2274 54.9868 82.2499 54.9868C82.2499 55.0661 82.2499 55.1443 82.2499 55.2236H79.1871C79.1852 55.1637 79.1842 55.1037 79.1823 55.0438H79.1832Z" fill="#0A0A0A"/>
<path d="M50.1377 50.3231H47.6318C48.4234 49.7781 49.8389 49.8448 50.1377 50.3231Z" fill="#0A0A0A"/>
<path d="M26.3446 60.0051C26.7181 59.634 27.7407 59.4572 28.4547 59.6166C28.2354 60.0167 27.112 60.2361 26.3446 60.0051Z" fill="#0A0A0A"/>
<path d="M26.2059 57.2647C26.8365 57.197 28.2325 56.7593 28.7593 57.1197C28.3121 57.7479 26.8064 57.599 26.2059 57.2647Z" fill="#0A0A0A"/>
<path d="M70.0628 51.2848C70.9321 50.7147 71.7683 51.3776 72.5542 51.0471C72.558 51.1263 72.5619 51.2056 72.5658 51.2848H70.0628Z" fill="#0A0A0A"/>
<path d="M71.7479 59.0554C71.422 59.0554 70.413 59.2535 70.4217 58.8215C70.4334 58.2398 71.9429 58.7258 72.1738 58.8785C72.0477 58.9713 71.9226 59.0641 71.7965 59.1568C71.78 59.123 71.7635 59.0892 71.747 59.0563L71.7479 59.0554Z" fill="#0A0A0A"/>
<path d="M26.0148 51.5698C25.7751 51.6094 24.1909 51.9853 24.2297 51.6761C24.2918 51.1813 25.6674 51.4122 25.9847 51.4122C25.9944 51.4654 26.0051 51.5176 26.0148 51.5707V51.5698Z" fill="#0A0A0A"/>
<path d="M58.059 52.5584C58.7799 52.5052 59.5007 52.4511 60.2225 52.3979C60.2264 52.4453 60.2312 52.4927 60.2351 52.54C59.5395 52.8686 58.7934 52.6627 58.0746 52.7381C58.0697 52.6782 58.0639 52.6192 58.059 52.5593V52.5584Z" fill="#0A0A0A"/>
<path d="M26.2185 51.6713C26.3757 51.3147 27.3895 51.1233 28.0725 51.2567C27.7145 51.6123 26.6919 51.5795 26.2185 51.6713Z" fill="#0A0A0A"/>
<path d="M95.8127 57.7757C96.224 57.5013 96.7683 57.5274 97.0758 57.8115C96.7353 58.1043 96.2434 58.0994 95.8127 57.7757Z" fill="#0A0A0A"/>
<path d="M60.0857 59.6524C59.6549 59.8997 58.9632 59.7654 58.4743 59.7654C58.8187 59.4291 59.7597 59.3277 60.0857 59.6524Z" fill="#0A0A0A"/>
<path d="M100.417 57.7517C99.7932 57.7845 99.1685 57.8174 98.5447 57.8493C98.5408 57.7768 98.5379 57.7043 98.534 57.6318H100.389C100.399 57.6715 100.407 57.7111 100.417 57.7517Z" fill="#0A0A0A"/>
<path d="M16.2016 23.729C16.8545 24.1629 16.3559 24.7533 15.7204 24.2827C15.8824 24.0962 16.0221 23.9348 16.2016 23.729Z" fill="#0A0A0A"/>
<path d="M89.5639 58.0001C89.1138 58.029 88.6636 58.0571 88.2144 58.0861C88.2096 58.0059 88.2037 57.9266 88.1989 57.8464C88.652 57.8145 89.1041 57.7826 89.5571 57.7507C89.56 57.8338 89.562 57.9169 89.5649 58.0001H89.5639Z" fill="#0A0A0A"/>
<path d="M71.6762 55.3347H73.4632C73.4661 55.3666 73.468 55.3995 73.4709 55.4314C72.8714 55.4758 72.2728 55.5212 71.6732 55.5657C71.6732 55.4884 71.6752 55.4111 71.6762 55.3347Z" fill="#0A0A0A"/>
<path d="M58.1328 23.3995C57.7428 23.2072 57.3518 23.0149 56.9094 22.7965C57.3799 22.6139 57.5419 22.6854 58.1328 23.3995Z" fill="#0A0A0A"/>
<path d="M40.3168 62.7265C40.3673 62.7739 40.4488 62.8493 40.5293 62.9237C40.2072 63.1363 39.8899 63.231 39.5193 63.0909C39.6988 62.7749 39.9617 62.8019 40.3158 62.7256L40.3168 62.7265Z" fill="#0A0A0A"/>
<path d="M68.9733 58.8532C69.3488 58.8242 69.7135 58.4705 70.2345 58.9209C69.7291 58.9586 69.3497 58.9875 68.9704 59.0165C68.9704 58.9624 68.9723 58.9083 68.9733 58.8542V58.8532Z" fill="#0A0A0A"/>
<path d="M51.07 51.8897C51.3882 51.8375 51.7074 51.7863 52.0256 51.7341C52.0353 51.794 52.0441 51.8549 52.0538 51.9148C51.785 52.3178 51.4232 52.0627 51.0923 52.0347C51.0846 51.9864 51.0778 51.938 51.07 51.8888V51.8897Z" fill="#0A0A0A"/>
<path d="M56.0964 22.5153C54.9477 22.0234 55.201 21.7219 56.1711 22.3162C56.1459 22.3829 56.1216 22.4486 56.0964 22.5153Z" fill="#0A0A0A"/>
<path d="M75.7663 54.0263H74.4857C74.4857 53.9847 74.4857 53.9432 74.4857 53.9016H75.7731C75.7712 53.9432 75.7692 53.9847 75.7673 54.0263H75.7663Z" fill="#0A0A0A"/>
<path d="M111.49 59.2252C111.749 59.1789 112.008 59.1315 112.309 59.0774C112.188 59.521 112.062 59.5577 111.534 59.3905C111.52 59.3354 111.505 59.2803 111.49 59.2252Z" fill="#0A0A0A"/>
<path d="M66.8729 52.17C67.163 52.1187 67.4531 52.0675 67.7684 52.0115C67.6452 52.4048 67.3192 52.4908 66.8729 52.17Z" fill="#0A0A0A"/>
<path d="M65.0771 52.5168C64.7541 52.4859 64.431 52.454 64.108 52.4231C64.1118 52.3844 64.1157 52.3458 64.1186 52.3071H65.0985C65.0907 52.3767 65.0839 52.4472 65.0762 52.5168H65.0771Z" fill="#0A0A0A"/>
<path d="M86.8756 58.0154H86.1034C86.1034 57.968 86.1034 57.9197 86.1034 57.8724C86.3634 57.7651 86.6195 57.5322 86.8892 57.8385C86.8843 57.8975 86.8795 57.9564 86.8746 58.0154H86.8756Z" fill="#0A0A0A"/>
<path d="M53.0035 19.4887C53.3383 19.2132 53.6225 19.2606 53.9106 19.6578C53.5245 19.8665 53.2694 19.6626 53.0094 19.479L53.0035 19.4877V19.4887Z" fill="#0A0A0A"/>
<path d="M84.3076 56.8509L83.3675 56.9476C83.6275 56.4673 83.9768 56.6876 84.3018 56.7244C84.3037 56.7669 84.3066 56.8084 84.3086 56.8509H84.3076Z" fill="#0A0A0A"/>
<path d="M66.1608 55.7329H65.3226C65.6272 55.4371 65.9018 55.5 66.1608 55.7329Z" fill="#0A0A0A"/>
<path d="M49.9825 51.9458C50.8556 51.6964 50.9555 52.2308 49.9679 52.0801C49.9728 52.0356 49.9776 51.9902 49.9825 51.9458Z" fill="#0A0A0A"/>
<path d="M75.0639 58.5517C75.3637 58.1536 75.5286 58.1391 76.0409 58.4483C75.7537 58.4792 75.4666 58.5092 75.0639 58.5517Z" fill="#0A0A0A"/>
<path d="M65.4439 52.201L66.1919 52.1575C66.1948 52.2174 66.1987 52.2783 66.2016 52.3382H65.4662C65.4594 52.2928 65.4516 52.2464 65.4448 52.201H65.4439Z" fill="#0A0A0A"/>
<path d="M63.5365 50.0188H64.8055C64.8074 50.0439 64.8104 50.0691 64.8123 50.0942C64.3874 50.1251 63.9615 50.157 63.5365 50.1879V50.0188Z" fill="#0A0A0A"/>
<path d="M58.6508 21.4919C58.873 21.5866 59.0952 21.6814 59.3164 21.7761C59.2814 21.8505 59.2475 21.9249 59.2126 21.9993C58.9952 21.8949 58.7779 21.7905 58.5606 21.6852C58.5907 21.6205 58.6208 21.5567 58.6499 21.4919H58.6508Z" fill="#0A0A0A"/>
<path d="M60.2322 22.2786C60.4602 22.353 60.6882 22.4264 60.9162 22.5008C60.8958 22.5733 60.8744 22.6467 60.8541 22.7192C60.627 22.6545 60.4 22.5897 60.173 22.525C60.1924 22.4428 60.2128 22.3607 60.2322 22.2786Z" fill="#0A0A0A"/>
<path d="M41.481 49.1114C41.2113 49.1298 40.9416 49.1482 40.6709 49.1655C40.6641 49.1047 40.6573 49.0438 40.6505 48.9819C40.9173 48.9433 41.1841 48.9056 41.4509 48.8669C41.4606 48.9481 41.4703 49.0293 41.48 49.1105L41.481 49.1114Z" fill="#0A0A0A"/>
<path d="M61.3779 52.6405C61.1141 52.6057 60.8502 52.5719 60.5873 52.5371L60.5931 52.4009H61.4012L61.3779 52.6405Z" fill="#0A0A0A"/>
<path d="M73.631 58.9605C73.7368 58.7547 73.7901 58.6513 73.8648 58.5063C74.0239 58.6571 74.1539 58.7798 74.3897 59.0031C74.0928 58.9866 73.9162 58.976 73.632 58.9605H73.631Z" fill="#0A0A0A"/>
<path d="M75.8595 58.9229C75.6228 58.9683 75.3851 59.0138 75.1483 59.0582C75.1338 58.9867 75.1202 58.9152 75.1057 58.8447C75.3414 58.7963 75.5772 58.747 75.8139 58.6987C75.8294 58.7731 75.8449 58.8485 75.8604 58.9229H75.8595Z" fill="#0A0A0A"/>
<path d="M65.8028 59.2138H64.9879C64.9811 59.1819 64.9753 59.15 64.9685 59.1181C65.2372 59.0765 65.506 59.0359 65.7747 58.9944C65.7834 59.0678 65.7931 59.1403 65.8019 59.2138H65.8028Z" fill="#0A0A0A"/>
<path d="M84.3668 57.8366L85.1371 57.7612C85.141 57.8221 85.1448 57.883 85.1487 57.9439H84.3736C84.3716 57.9081 84.3697 57.8724 84.3668 57.8366Z" fill="#0A0A0A"/>
<path d="M29.0407 11.23C29.6179 10.9797 30.0807 11.2716 30.6182 11.518C31.273 11.8185 32.2829 11.9161 32.5517 12.61C31.4156 12.6013 30.072 11.7006 29.0397 11.23H29.0407Z" fill="#0A0A0A"/>
<path d="M18.6881 5.74512C18.8045 5.84949 18.9831 6.01087 19.2178 6.22153C18.6348 6.29401 17.9042 5.86978 17.5744 5.39916C17.7849 5.28416 17.9993 5.26774 18.2176 5.34891C18.2438 5.1827 18.2671 5.03774 18.3059 4.79712C18.5339 4.87153 18.7463 4.94111 18.9578 5.01068C18.8822 5.21555 18.8075 5.42042 18.6881 5.74512Z" fill="#0A0A0A"/>
<path d="M33.6208 13.1908C34.1447 12.8255 35.8463 13.5638 35.9268 14.1639C35.1536 13.8383 34.4299 13.5329 33.6208 13.1908Z" fill="#0A0A0A"/>
<path d="M28.4401 11.5461C29.1571 11.8003 29.7955 12.0264 30.527 12.2854C29.9982 12.5975 28.6216 12.0747 28.4401 11.5461Z" fill="#0A0A0A"/>
<path d="M19.9969 6.55591C20.5935 6.62839 21.1116 6.87287 21.5414 7.31064C21.5229 7.35316 21.5045 7.39568 21.487 7.43723C20.9709 7.19757 20.4558 6.95695 19.9396 6.71729C19.959 6.66317 19.9775 6.60906 19.9969 6.55591Z" fill="#0A0A0A"/>
<path d="M34.5589 14.4287C35.1478 14.1059 35.5388 14.2847 35.7367 14.9447C35.335 14.7688 34.9887 14.6171 34.5589 14.4287Z" fill="#0A0A0A"/>
<path d="M31.4913 12.9985C31.1197 12.8815 30.7579 12.8767 30.5842 12.5153C30.9674 12.3394 31.4244 12.5626 31.4855 13.0062L31.4913 12.9975V12.9985Z" fill="#0A0A0A"/>
<path d="M33.678 12.8971C33.2347 13.0575 33.2269 13.0913 32.8883 12.7705C33.3113 12.5801 33.3103 12.61 33.678 12.8971Z" fill="#0A0A0A"/>
<path d="M28.0579 10.627C28.4052 10.6869 28.6274 10.7246 28.8728 10.7671C28.6235 11.2077 28.5478 11.1981 28.0579 10.627Z" fill="#0A0A0A"/>
<path d="M31.4855 13.0072C31.892 12.9241 31.9744 12.8429 32.2082 13.1802C31.8745 13.2836 31.792 13.1879 31.4913 12.9985L31.4855 13.0072Z" fill="#0A0A0A"/>
<path d="M63.3221 36.1951C63.6927 36.1728 64.0633 36.1506 64.4805 36.1255C64.2428 36.4038 63.9246 36.4444 63.3221 36.1951Z" fill="#0A0A0A"/>
<path d="M55.8791 26.5835C55.5716 27.0783 54.6839 27.3518 53.9786 27.0918C54.5907 26.9275 55.2039 26.7642 55.8791 26.5835Z" fill="#0A0A0A"/>
<path d="M57.8019 26.4261C57.3043 26.5489 56.8066 26.6706 56.2322 26.8127C56.5058 26.2396 57.1762 26.0377 57.7612 26.2551C57.7748 26.3121 57.7884 26.3691 57.8019 26.4261Z" fill="#0A0A0A"/>
<path d="M82.3915 28.2563C83.0842 27.92 86.0471 28.754 86.4953 29.4034C85.2972 29.6024 83.5334 28.6293 82.3857 28.2466L82.3925 28.2563H82.3915Z" fill="#0A0A0A"/>
<path d="M86.9726 29.3879C87.7032 29.4894 88.3405 29.8441 88.9925 30.1591C88.9741 30.2103 88.9556 30.2615 88.9382 30.3127C88.2658 30.0673 87.5935 29.8209 86.9222 29.5754C86.9396 29.5136 86.9561 29.4508 86.9736 29.3889L86.9726 29.3879Z" fill="#0A0A0A"/>
<path d="M89.3514 30.217C89.7162 30.3407 90.082 30.4644 90.4467 30.5881C90.4254 30.6471 90.405 30.706 90.3837 30.765C89.92 30.9225 89.66 30.4973 89.2952 30.3707C89.3136 30.3195 89.333 30.2683 89.3514 30.217Z" fill="#0A0A0A"/>
<path d="M47.8957 17.0457C48.341 17.2853 48.7872 17.5259 49.2325 17.7656C49.1889 17.8429 49.1462 17.9192 49.1025 17.9966C48.6631 17.7453 48.2246 17.4931 47.7851 17.2418C47.8219 17.1761 47.8588 17.1114 47.8957 17.0457Z" fill="#0A0A0A"/>
<path d="M53.4071 28.265C53.541 28.2514 53.6749 28.2389 53.8088 28.2253L53.8466 28.349C53.3674 28.3993 53.1365 29.0178 52.4564 28.8419C52.827 28.6158 53.1219 28.437 53.4159 28.2582L53.4071 28.265Z" fill="#0A0A0A"/>
<path d="M38.8102 31.3091C38.9537 31.255 40.0704 30.7003 40.0558 31.0462C40.0384 31.4762 39.2128 31.4801 38.8975 31.5565C38.8684 31.4743 38.8402 31.3912 38.8111 31.3091H38.8102Z" fill="#0A0A0A"/>
</g>
<defs>
<clipPath id="clip0_175_628">
<rect width="134" height="74" fill="white"/>
</clipPath>
</defs>
</svg>
