<svg width="48" height="48" viewBox="0 0 48 48" fill="none" xmlns="http://www.w3.org/2000/svg">
<g clip-path="url(#clip0_139_913)">
<path d="M32.7839 18.2775C33.0514 17.4148 33.1372 16.5059 33.0359 15.6084C32.9346 14.7108 32.6484 13.844 32.1955 13.0625C32.1187 12.9295 32.0082 12.819 31.8751 12.7422C31.7421 12.6654 31.5911 12.625 31.4375 12.625C30.4183 12.6229 29.4128 12.8591 28.5012 13.3149C27.5896 13.7707 26.7973 14.4334 26.1875 15.25H23.5625C22.9527 14.4334 22.1604 13.7707 21.2488 13.3149C20.3372 12.8591 19.3317 12.6229 18.3125 12.625C18.1589 12.625 18.0079 12.6654 17.8749 12.7422C17.7418 12.819 17.6313 12.9295 17.5545 13.0625C17.1016 13.844 16.8154 14.7108 16.7141 15.6084C16.6128 16.5059 16.6986 17.4148 16.9661 18.2775C16.4255 19.2211 16.1359 20.2876 16.125 21.375V22.25C16.1268 23.7305 16.6643 25.1604 17.6381 26.2755C18.6119 27.3907 19.9564 28.1158 21.4231 28.317C20.8244 29.0832 20.4994 30.0277 20.5 31V31.875H17.875C17.1788 31.875 16.5111 31.5985 16.0188 31.1062C15.5266 30.6139 15.25 29.9462 15.25 29.25C15.25 28.6755 15.1368 28.1066 14.917 27.5758C14.6971 27.045 14.3748 26.5627 13.9686 26.1564C13.5623 25.7502 13.08 25.4279 12.5492 25.208C12.0184 24.9882 11.4495 24.875 10.875 24.875C10.6429 24.875 10.4204 24.9672 10.2563 25.1313C10.0922 25.2954 10 25.518 10 25.75C10 25.9821 10.0922 26.2046 10.2563 26.3687C10.4204 26.5328 10.6429 26.625 10.875 26.625C11.5712 26.625 12.2389 26.9016 12.7312 27.3939C13.2234 27.8861 13.5 28.5538 13.5 29.25C13.5 30.4103 13.9609 31.5231 14.7814 32.3436C15.6019 33.1641 16.7147 33.625 17.875 33.625H20.5V35.375C20.5 35.6071 20.5922 35.8296 20.7563 35.9937C20.9204 36.1578 21.1429 36.25 21.375 36.25C21.6071 36.25 21.8296 36.1578 21.9937 35.9937C22.1578 35.8296 22.25 35.6071 22.25 35.375V31C22.25 30.3038 22.5266 29.6361 23.0188 29.1439C23.5111 28.6516 24.1788 28.375 24.875 28.375C25.5712 28.375 26.2389 28.6516 26.7312 29.1439C27.2234 29.6361 27.5 30.3038 27.5 31V35.375C27.5 35.6071 27.5922 35.8296 27.7563 35.9937C27.9204 36.1578 28.1429 36.25 28.375 36.25C28.6071 36.25 28.8296 36.1578 28.9937 35.9937C29.1578 35.8296 29.25 35.6071 29.25 35.375V31C29.2506 30.0277 28.9256 29.0832 28.3269 28.317C29.7936 28.1158 31.1381 27.3907 32.1119 26.2755C33.0857 25.1604 33.6232 23.7305 33.625 22.25V21.375C33.6141 20.2876 33.3245 19.2211 32.7839 18.2775ZM31.875 22.25C31.875 23.4103 31.4141 24.5231 30.5936 25.3436C29.7731 26.1641 28.6603 26.625 27.5 26.625H22.25C21.0897 26.625 19.9769 26.1641 19.1564 25.3436C18.3359 24.5231 17.875 23.4103 17.875 22.25V21.375C17.8857 20.5 18.1477 19.6466 18.6297 18.9163C18.7195 18.7978 18.7777 18.6585 18.7988 18.5113C18.8198 18.3641 18.803 18.214 18.75 18.0752C18.5221 17.4874 18.4124 16.8604 18.4272 16.2302C18.4421 15.5999 18.5811 14.9788 18.8364 14.4024C19.5525 14.4794 20.2421 14.7166 20.854 15.0964C21.466 15.4762 21.9846 15.9889 22.3714 16.5964C22.4502 16.7197 22.5587 16.8212 22.6869 16.8917C22.8151 16.9622 22.959 16.9995 23.1053 17H26.6436C26.7905 17 26.935 16.9631 27.0638 16.8925C27.1926 16.822 27.3017 16.7202 27.3808 16.5964C27.7676 15.9888 28.2862 15.4761 28.8981 15.0963C29.5101 14.7165 30.1997 14.4793 30.9158 14.4024C31.1707 14.9789 31.3094 15.6001 31.3239 16.2304C31.3383 16.8606 31.2283 17.4875 31 18.0752C30.9471 18.2127 30.9294 18.3613 30.9485 18.5074C30.9676 18.6535 31.0229 18.7926 31.1094 18.9119C31.5962 19.6422 31.862 20.4974 31.875 21.375V22.25Z" fill="#0A0A0A"/>
</g>
<circle cx="24" cy="24" r="23" stroke="#0A0A0A" stroke-width="2"/>
<defs>
<clipPath id="clip0_139_913">
<rect width="28" height="28" fill="white" transform="translate(10 10)"/>
</clipPath>
</defs>
</svg>
