<svg width="179" height="169" viewBox="0 0 179 169" fill="none" xmlns="http://www.w3.org/2000/svg">
<g clip-path="url(#clip0_131_808)">
<path d="M74.2577 37.3621H13.4685L0.380859 112.104H74.4773L76.9759 97.8253H63.6594L74.2577 37.3621Z" fill="#0A0A0A"/>
<path d="M80.893 0L74.3126 37.362H97.2664C110.217 37.362 116.477 42.3509 116.477 50.9806C116.477 52.2554 116.202 54.1629 115.928 55.6119L114.747 62.4258C112.752 73.6784 108.13 79.401 92.1869 79.401H80.2249L76.9667 97.8252H161.268L178.52 0H80.893Z" fill="#0A0A0A"/>
<path d="M101.614 61.1418L102.428 56.3271C102.611 55.2358 102.703 54.3279 102.703 53.6951C102.703 50.6045 100.891 49.1555 96.8179 49.1555H85.5881L82.3299 67.8548H93.2943C99.4537 67.8548 100.817 65.6722 101.632 61.1418H101.614Z" fill="#0A0A0A"/>
<path d="M5.18577 151.796L3.56582 161.012H0.335083L4.83798 135.334H13.8438C18.5023 135.334 20.4608 137.223 20.4608 140.35C20.4608 140.855 20.4242 141.313 20.3053 141.974L19.6921 145.523C18.9965 149.613 17.1477 151.805 11.034 151.805H5.18577V151.796ZM17.1111 141.772C17.1843 141.35 17.2301 141.002 17.2301 140.653C17.2301 138.883 16.1501 138.223 13.5784 138.223H7.5745L5.68914 148.943H11.6564C14.9695 148.943 16.0403 147.861 16.5071 145.284L17.1203 141.772H17.1111Z" fill="#0A0A0A"/>
<path d="M24.6159 156.005C24.5427 156.427 24.5427 156.702 24.5427 156.858C24.5427 158.05 25.1193 158.747 27.1237 158.747C29.128 158.747 31.4344 158.013 33.9787 156.784L34.6743 159.132C32.2855 160.444 29.8236 161.406 26.7118 161.406C22.9411 161.406 21.4401 159.636 21.4401 157.05C21.4401 156.592 21.4767 155.968 21.5957 155.317L22.7123 148.989C23.5543 144.248 25.6776 141.854 30.9859 141.854C34.0977 141.854 36.3308 143.322 36.3308 146.1C36.3308 149.264 34.8664 150.842 29.5948 152.621C27.325 153.391 26.5928 153.584 24.982 154.088L24.6343 156.014L24.6159 156.005ZM33.3472 146.44C33.3472 145.202 32.4228 144.431 30.7296 144.431C27.8009 144.431 26.4555 145.513 25.9156 148.558L25.4488 151.144C26.4922 150.832 27.1054 150.64 28.9083 150.099C32.0201 149.173 33.338 147.98 33.338 146.44H33.3472Z" fill="#0A0A0A"/>
<path d="M47.6704 167.028C49.2903 165.524 49.9402 164.332 50.3612 161.865L53.3631 144.899L53.8207 142.239L54.3973 138.965C55.0105 135.416 56.667 133.802 60.2456 133.802C61.5909 133.802 62.9821 134.068 64.2451 134.573L63.5861 137.003C62.5062 136.654 61.3896 136.462 60.4286 136.462C58.5433 136.462 57.8477 137.159 57.5457 138.965L56.9691 142.239H62.433L61.7374 144.899H56.5023L53.3814 162.599C52.8414 165.57 51.8804 166.991 49.5741 169L47.6521 167.037L47.6704 167.028Z" fill="#0A0A0A"/>
<path d="M61.9845 154.272L62.9455 148.797C63.7509 144.211 66.3684 141.854 71.7591 141.854C76.0698 141.854 78.3029 144.248 78.3029 147.448C78.3029 147.714 78.3029 148.145 78.1839 148.76L77.1406 154.657C76.4084 158.903 74.1753 161.406 68.3636 161.406C63.0187 161.406 61.2432 158.325 61.9753 154.272H61.9845ZM75.0264 148.76C75.0996 148.338 75.1454 147.953 75.1454 147.641C75.1454 145.596 73.9556 144.596 71.3015 144.596C68.2263 144.596 66.6064 146.064 66.103 148.989L65.142 154.427C64.721 157.014 65.3342 158.674 68.8395 158.674C72.0703 158.674 73.5346 157.289 74.038 154.473L75.0356 148.769L75.0264 148.76Z" fill="#0A0A0A"/>
<path d="M117.593 146.559C117.63 146.33 117.667 146.055 117.667 145.899C117.667 145.128 117.282 144.853 116.358 144.853C114.473 144.853 111.352 146.32 109.311 147.669L106.968 161.012H103.81L106.355 146.55C106.391 146.32 106.428 146.045 106.428 145.889C106.428 145.119 106.043 144.844 105.119 144.844C103.234 144.844 100.351 146.229 98.0352 147.659L95.6922 161.003H92.5347L95.802 142.46L98.5751 141.992L98.3463 144.651C100.195 143.34 104.039 141.836 106.272 141.836C108.386 141.836 109.43 142.918 109.585 144.651C111.626 143.221 115.278 141.836 117.511 141.836C119.863 141.836 120.861 143.111 120.861 145.156C120.861 145.578 120.824 146.155 120.705 146.779L118.207 161.012H115.049L117.593 146.55V146.559Z" fill="#0A0A0A"/>
<path d="M137.765 161.012H135.147L135.266 158.738C133.189 160.59 130.645 161.397 128.265 161.397C125.382 161.397 124.302 159.82 124.302 157.656C124.302 157.188 124.375 156.693 124.458 156.188L125.766 148.751C126.572 144.202 128.265 141.845 134.196 141.845C136.502 141.845 139.083 142.423 140.932 143.12L137.774 161.012H137.765ZM137.417 145.046C136.42 144.78 135.111 144.578 133.802 144.578C130.919 144.578 129.491 145.468 128.842 149.164L127.652 155.95C127.579 156.418 127.496 156.913 127.496 157.261C127.496 158.151 127.881 158.646 129.034 158.646C131.377 158.646 133.463 157.335 135.614 155.372L137.426 145.037L137.417 145.046Z" fill="#0A0A0A"/>
<path d="M160.7 145.165C160.7 145.587 160.664 146.165 160.545 146.788L158.046 161.021H154.889L157.433 146.559C157.47 146.33 157.506 146.055 157.506 145.899C157.506 145.128 157.122 144.853 156.198 144.853C154.312 144.853 151.429 146.238 149.114 147.669L146.771 161.012H143.613L146.881 142.469L149.654 142.001L149.425 144.661C151.274 143.349 155.118 141.845 157.351 141.845C159.694 141.845 160.7 143.12 160.7 145.165Z" fill="#0A0A0A"/>
<path d="M165.634 158.389C165.634 158.234 165.634 157.968 165.707 157.546L167.94 144.863H164.627L165.094 142.24H168.407L169.212 137.608L172.443 137.187L171.555 142.24H176.708L176.168 144.863H171.088L168.855 157.509C168.819 157.738 168.818 157.821 168.818 157.931C168.818 158.472 169.13 158.738 169.898 158.738C170.933 158.738 172.049 158.509 173.358 157.931L174.09 160.132C172.47 160.939 170.859 161.407 169.011 161.407C166.704 161.407 165.624 160.095 165.624 158.399L165.634 158.389Z" fill="#0A0A0A"/>
<path d="M49.6748 141.854C47.7162 142.698 45.8308 143.863 44.3299 145.092L44.6776 142.01L41.8679 142.478L38.6006 161.021H41.7581L43.9546 148.531C45.5288 147.366 47.2677 146.22 49.1165 145.165L49.6931 141.854H49.6748Z" fill="#0A0A0A"/>
<path d="M91.5371 141.854C89.5785 142.698 87.6931 143.863 86.1922 145.092L86.5399 142.01L83.7302 142.478L80.4629 161.021H83.6204L85.8169 148.531C87.3819 147.366 89.13 146.22 90.9696 145.165L91.5462 141.854H91.5371Z" fill="#0A0A0A"/>
</g>
<defs>
<clipPath id="clip0_131_808">
<rect width="178.185" height="169" fill="white" transform="translate(0.335083)"/>
</clipPath>
</defs>
</svg>
