<svg width="48" height="48" viewBox="0 0 48 48" fill="none" xmlns="http://www.w3.org/2000/svg">
<circle cx="24" cy="24" r="23" stroke="#0A0A0A" stroke-width="2"/>
<path d="M25.9548 22.3917L32.6281 14.6353C33.0114 14.1898 32.6949 13.5 32.1072 13.5C31.907 13.5 31.7168 13.5873 31.5863 13.739L25.1498 21.221L20.1418 13.9336C19.9552 13.6622 19.647 13.5 19.3176 13.5H15.6263C14.8212 13.5 14.3462 14.4028 14.8021 15.0663L21.7486 25.1751L14.7026 33.3647C14.3193 33.8102 14.6358 34.5 15.2235 34.5C15.4236 34.5 15.6138 34.4127 15.7444 34.261L22.5528 26.3467L27.8583 34.0664C28.0448 34.3378 28.353 34.5 28.6824 34.5H32.3747C33.1798 34.5 33.6548 33.5972 33.1989 32.9337L25.9556 22.3917H25.9548ZM23.4724 25.2784L22.6586 24.1155L16.1933 14.865H18.9775L24.196 22.3305L25.0098 23.4934L31.7936 33.1971H29.0094L23.4724 25.2784Z" fill="#0A0A0A" stroke="#0A0A0A" stroke-width="0.5"/>
</svg>
